ply
format ascii 1.0
comment VCGLIB generated
element vertex 36
property float x
property float y
property float z
property float nx
property float ny
property float nz
property uchar red
property uchar green
property uchar blue
property uchar alpha
property float texture_u
property float texture_v
element face 12
property list uchar int vertex_indices
end_header
1 2.999997 1 0 4.326749 0 255 0 0 255 0.330976 0.999023
1 3 -1 0 4.326749 0 0 255 0 255 0.000977 0.999023
-1 3 -1 0 4.326749 0 0 0 255 255 0.000977 0.669024
-1 3 1 0 4.326749 0 150 150 150 255 0.332357 0.667643
-1 -3 -1 -1.44225 0 0 150 150 150 255 0.664309 0.999023
-1 -3 1 -1.44225 0 0 150 150 150 255 0.334310 0.999023
-1 3 1 -1.44225 0 0 150 150 150 255 0.334310 0.669024
-1 3 -1 -1.44225 0 0 150 150 150 255 0.665690 0.667643
1 -3 -1 -0 -4.326749 -0 150 150 150 255 0.667643 0.999023
0.999999 -3 1 -0 -4.326749 -0 150 150 150 255 0.667643 0.669024
-1 -3 -1 -0 -4.326749 -0 150 150 150 255 0.997642 0.999023
-1 -3 1 0 -4.326749 0 150 150 150 255 0.999023 0.667643
1 3 -1 1.44225 0 0 150 150 150 255 0.000977 0.665690
1 2.999997 1 1.44225 0 0 150 150 150 255 0.000977 0.335691
1 -3 -1 1.44225 0 0 150 150 150 255 0.330976 0.665690
1 2.999997 1 1.44225 -4.326749e-06 0 150 150 150 255 0.002358 0.334310
0.999999 -3 1 1.44225 -4.326749e-06 0 150 150 150 255 0.332357 0.334310
1 -3 -1 1.44225 -4.326749e-06 0 150 150 150 255 0.332357 0.664309
1 2.999997 1 0 0 1.44225 255 255 0 255 0.334310 0.665690
-1 3 1 0 0 1.44225 255 255 0 255 0.334310 0.335691
0.999999 -3 1 0 0 1.44225 255 255 0 255 0.664309 0.665690
-1 -3 1 0 0 1.44225 255 255 0 255 0.665690 0.334310
1 3 -1 0 0 -1.44225 150 150 150 255 0.997642 0.665690
1 -3 -1 0 0 -1.44225 150 150 150 255 0.667643 0.665690
-1 -3 -1 0 0 -1.44225 150 150 150 255 0.667643 0.335691
-1 3 -1 0 0 -1.44225 150 150 150 255 0.999023 0.334310
1 2.999997 1 0 4.326749 0 150 150 150 255 0.332357 0.997642
-1 3 -1 0 4.326749 0 150 150 150 255 0.002358 0.667643
-1 -3 -1 -1.44225 0 0 150 150 150 255 0.665690 0.997642
-1 3 1 -1.44225 0 0 150 150 150 255 0.335691 0.667643
0.999999 -3 1 -0 -4.326749 -0 150 150 150 255 0.669024 0.667643
-1 -3 -1 -0 -4.326749 -0 150 150 150 255 0.999023 0.997642
-1 3 1 0 0 1.44225 255 255 0 255 0.335691 0.334310
0.999999 -3 1 0 0 1.44225 255 255 0 255 0.665690 0.664309
1 3 -1 0 0 -1.44225 150 150 150 255 0.999023 0.664309
-1 -3 -1 0 0 -1.44225 150 150 150 255 0.669024 0.334310
3 0 1 2 
3 26 27 3 
3 4 5 6 
3 28 29 7 
3 8 9 10 
3 30 11 31 
3 12 13 14 
3 15 16 17 
3 18 19 20 
3 32 21 33 
3 22 23 24 
3 34 35 25 
