ply
format ascii 1.0
comment VCGLIB generated
element vertex 240
property float x
property float y
property float z
property float nx
property float ny
property float nz
property uchar red
property uchar green
property uchar blue
property uchar alpha
property float texture_u
property float texture_v
element face 80
property list uchar int vertex_indices
end_header
0 -1 0 0.12305 1.13399 0.378713 255 255 255 255 0 0
-0.42532 -0.85065 -0.30901 0.0992959 0.915079 0.305603 255 255 255 255 0 0
0.16246 -0.85065 -0.49999 0.0992961 0.915081 0.305604 255 255 255 255 0 0
-0.72361 -0.44722 -0.52573 0.841554 0.795282 0.322136 255 255 255 255 0 0
-0.42532 -0.85065 -0.30901 0.67911 0.64177 0.259955 255 255 255 255 0 0
-0.85065 -0.52574 0 0.679117 0.641776 0.259957 255 255 255 255 0 0
0 -1 0 -0.322143 1.13398 0.234054 255 255 255 255 0 0
0.16246 -0.85065 -0.49999 -0.259962 0.915099 0.188877 255 255 255 255 0 0
0.52573 -0.85065 0 -0.259957 0.915078 0.188873 255 255 255 255 0 0
0 -1 0 -0.322143 1.13398 -0.234054 255 255 255 255 0 0
0.52573 -0.85065 0 -0.259957 0.915078 -0.188873 255 255 255 255 0 0
0.16246 -0.85065 0.49999 -0.259962 0.915099 -0.188877 255 255 255 255 0 0
0 -1 0 0.12305 1.13399 -0.378713 255 255 255 255 0 0
0.16246 -0.85065 0.49999 0.0992961 0.915081 -0.305604 255 255 255 255 0 0
-0.42532 -0.85065 0.30901 0.0992959 0.915079 -0.305603 255 255 255 255 0 0
-0.72361 -0.44722 -0.52573 1.08768 0.397075 0.322138 255 255 255 255 0 0
-0.85065 -0.52574 0 0.877727 0.320427 0.259955 255 255 255 255 0 0
-0.95106 0 -0.30901 0.877704 0.320419 0.259949 255 255 255 255 0 0
0.27639 -0.44722 -0.85065 0.0297458 0.397087 1.13401 255 255 255 255 0 0
-0.26287 -0.52574 -0.80901 0.0240032 0.320427 0.915079 255 255 255 255 0 0
0 0 -1 0.0240031 0.320425 0.915075 255 255 255 255 0 0
0.89443 -0.44722 0 -1.06932 0.39708 0.378715 255 255 255 255 0 0
0.68819 -0.52574 -0.5 -0.862874 0.320419 0.305599 255 255 255 255 0 0
0.95106 0 -0.30901 -0.862875 0.32042 0.3056 255 255 255 255 0 0
0.27639 -0.44722 0.85065 -0.690593 0.397088 -0.899944 255 255 255 255 0 0
0.68819 -0.52574 0.5 -0.557285 0.320437 -0.726225 255 255 255 255 0 0
0.58779 0 0.80902 -0.557273 0.32043 -0.726209 255 255 255 255 0 0
-0.72361 -0.44722 0.52573 0.642487 0.39709 -0.934905 255 255 255 255 0 0
-0.26287 -0.52574 0.80901 0.518461 0.320436 -0.754431 255 255 255 255 0 0
-0.58779 0 0.80902 0.518446 0.320426 -0.754409 255 255 255 255 0 0
-0.72361 -0.44722 -0.52573 0.964635 0.150982 0.700832 255 255 255 255 0 0
-0.95106 0 -0.30901 0.778426 0.121837 0.565546 255 255 255 255 0 0
-0.58779 0 -0.80902 0.778427 0.121837 0.565547 255 255 255 255 0 0
0.27639 -0.44722 -0.85065 -0.368445 0.15099 1.13398 255 255 255 255 0 0
0 0 -1 -0.297327 0.121846 0.915099 255 255 255 255 0 0
0.58779 0 -0.80902 -0.297322 0.121844 0.915085 255 255 255 255 0 0
0.89443 -0.44722 0 -1.19231 0.150979 0 255 255 255 255 0 0
0.95106 0 -0.30901 -0.962196 0.12184 0 255 255 255 255 0 0
0.95106 0 0.30901 -0.962196 0.12184 0 255 255 255 255 0 0
0.27639 -0.44722 0.85065 -0.368445 0.15099 -1.13398 255 255 255 255 0 0
0.58779 0 0.80902 -0.297322 0.121844 -0.915085 255 255 255 255 0 0
0 0 1 -0.297327 0.121846 -0.915099 255 255 255 255 0 0
-0.72361 -0.44722 0.52573 0.964635 0.150981 -0.700832 255 255 255 255 0 0
-0.58779 0 0.80902 0.778427 0.121837 -0.565547 255 255 255 255 0 0
-0.95106 0 0.30901 0.778426 0.121837 -0.565546 255 255 255 255 0 0
-0.27639 0.44722 -0.85065 0.491479 -0.795275 0.755272 255 255 255 255 0 0
-0.68819 0.52574 -0.5 0.396612 -0.641769 0.609487 255 255 255 255 0 0
-0.16246 0.85065 -0.49999 0.396614 -0.641772 0.60949 255 255 255 255 0 0
0.72361 0.44722 -0.52573 -0.566423 -0.79528 0.700819 255 255 255 255 0 0
0.26287 0.52574 -0.80901 -0.457094 -0.641778 0.56555 255 255 255 255 0 0
0.42532 0.85065 -0.30901 -0.457087 -0.641768 0.565542 255 255 255 255 0 0
0.72361 0.44722 0.52573 -0.841554 -0.795282 -0.322136 255 255 255 255 0 0
0.85065 0.52574 0 -0.679117 -0.641776 -0.259957 255 255 255 255 0 0
0.42532 0.85065 0.30901 -0.67911 -0.64177 -0.259955 255 255 255 255 0 0
-0.27639 0.44722 0.85065 0.0463101 -0.795286 -0.89992 255 255 255 255 0 0
0.26287 0.52574 0.80901 0.0373706 -0.641766 -0.726202 255 255 255 255 0 0
-0.16246 0.85065 0.49999 0.0373708 -0.64177 -0.726207 255 255 255 255 0 0
-0.89443 0.44722 0 0.870186 -0.795275 -0.234044 255 255 255 255 0 0
-0.68819 0.52574 0.5 0.702213 -0.641761 -0.188866 255 255 255 255 0 0
-0.52573 0.85065 0 0.702221 -0.641769 -0.188869 255 255 255 255 0 0
-0.52573 0.85065 0 0.259957 -0.915078 -0.188873 255 255 255 255 0 0
-0.16246 0.85065 0.49999 0.259962 -0.915099 -0.188877 255 255 255 255 0 0
0 1 0 0.322143 -1.13398 -0.234054 255 255 255 255 0 0
-0.52573 0.85065 0 0.51429 -0.832173 -0.373659 255 255 255 255 0 0
-0.68819 0.52574 0.5 0.514286 -0.832166 -0.373657 255 255 255 255 0 0
-0.16246 0.85065 0.49999 0.514291 -0.832175 -0.37366 255 255 255 255 0 0
-0.68819 0.52574 0.5 0.396612 -0.641769 -0.609487 255 255 255 255 0 0
-0.27639 0.44722 0.85065 0.491479 -0.795275 -0.755272 255 255 255 255 0 0
-0.16246 0.85065 0.49999 0.396614 -0.641772 -0.60949 255 255 255 255 0 0
-0.16246 0.85065 0.49999 -0.0992961 -0.915081 -0.305604 255 255 255 255 0 0
0.42532 0.85065 0.30901 -0.0992959 -0.915079 -0.305603 255 255 255 255 0 0
0 1 0 -0.12305 -1.13399 -0.378713 255 255 255 255 0 0
-0.16246 0.85065 0.49999 -0.196439 -0.832165 -0.604581 255 255 255 255 0 0
0.26287 0.52574 0.80901 -0.19644 -0.832169 -0.604583 255 255 255 255 0 0
0.42532 0.85065 0.30901 -0.196443 -0.832181 -0.604592 255 255 255 255 0 0
0.26287 0.52574 0.80901 -0.457094 -0.641778 -0.56555 255 255 255 255 0 0
0.72361 0.44722 0.52573 -0.566423 -0.79528 -0.700819 255 255 255 255 0 0
0.42532 0.85065 0.30901 -0.457087 -0.641769 -0.565542 255 255 255 255 0 0
0.42532 0.85065 0.30901 -0.321331 -0.91509 0 255 255 255 255 0 0
0.42532 0.85065 -0.30901 -0.321331 -0.91509 0 255 255 255 255 0 0
0 1 0 -0.398193 -1.13398 0 255 255 255 255 0 0
0.42532 0.85065 0.30901 -0.635702 -0.832179 0 255 255 255 255 0 0
0.85065 0.52574 0 -0.635688 -0.83216 0 255 255 255 255 0 0
0.42532 0.85065 -0.30901 -0.635702 -0.832179 0 255 255 255 255 0 0
0.85065 0.52574 0 -0.679117 -0.641776 0.259957 255 255 255 255 0 0
0.72361 0.44722 -0.52573 -0.841554 -0.795282 0.322136 255 255 255 255 0 0
0.42532 0.85065 -0.30901 -0.67911 -0.64177 0.259955 255 255 255 255 0 0
0.42532 0.85065 -0.30901 -0.0992959 -0.915079 0.305603 255 255 255 255 0 0
-0.16246 0.85065 -0.49999 -0.0992961 -0.915081 0.305604 255 255 255 255 0 0
0 1 0 -0.12305 -1.13399 0.378713 255 255 255 255 0 0
0.42532 0.85065 -0.30901 -0.196443 -0.832181 0.604592 255 255 255 255 0 0
0.26287 0.52574 -0.80901 -0.19644 -0.832169 0.604583 255 255 255 255 0 0
-0.16246 0.85065 -0.49999 -0.196439 -0.832165 0.604581 255 255 255 255 0 0
0.26287 0.52574 -0.80901 0.0373706 -0.641766 0.726202 255 255 255 255 0 0
-0.27639 0.44722 -0.85065 0.0463101 -0.795286 0.89992 255 255 255 255 0 0
-0.16246 0.85065 -0.49999 0.0373708 -0.64177 0.726207 255 255 255 255 0 0
-0.16246 0.85065 -0.49999 0.259962 -0.915099 0.188877 255 255 255 255 0 0
-0.52573 0.85065 0 0.259957 -0.915078 0.188873 255 255 255 255 0 0
0 1 0 0.322143 -1.13398 0.234054 255 255 255 255 0 0
-0.16246 0.85065 -0.49999 0.514291 -0.832175 0.37366 255 255 255 255 0 0
-0.68819 0.52574 -0.5 0.514286 -0.832166 0.373657 255 255 255 255 0 0
-0.52573 0.85065 0 0.51429 -0.832173 0.373659 255 255 255 255 0 0
-0.68819 0.52574 -0.5 0.702213 -0.641761 0.188866 255 255 255 255 0 0
-0.89443 0.44722 0 0.870186 -0.795275 0.234044 255 255 255 255 0 0
-0.52573 0.85065 0 0.702221 -0.641769 0.188869 255 255 255 255 0 0
-0.95106 0 0.30901 0.862875 -0.32042 -0.3056 255 255 255 255 0 0
-0.68819 0.52574 0.5 0.862874 -0.320419 -0.305599 255 255 255 255 0 0
-0.89443 0.44722 0 1.06932 -0.39708 -0.378715 255 255 255 255 0 0
-0.95106 0 0.30901 0.832165 -0.196448 -0.604589 255 255 255 255 0 0
-0.58779 0 0.80902 0.832172 -0.19645 -0.604594 255 255 255 255 0 0
-0.68819 0.52574 0.5 0.832163 -0.196448 -0.604587 255 255 255 255 0 0
-0.58779 0 0.80902 0.557273 -0.32043 -0.726209 255 255 255 255 0 0
-0.27639 0.44722 0.85065 0.690593 -0.397088 -0.899944 255 255 255 255 0 0
-0.68819 0.52574 0.5 0.557285 -0.320437 -0.726225 255 255 255 255 0 0
0 0 1 -0.0240031 -0.320425 -0.915075 255 255 255 255 0 0
0.26287 0.52574 0.80901 -0.0240032 -0.320427 -0.915079 255 255 255 255 0 0
-0.27639 0.44722 0.85065 -0.0297458 -0.397087 -1.13401 255 255 255 255 0 0
0 0 1 -0.31785 -0.196457 -0.978264 255 255 255 255 0 0
0.58779 0 0.80902 -0.317853 -0.196459 -0.978274 255 255 255 255 0 0
0.26287 0.52574 0.80901 -0.317846 -0.196455 -0.978253 255 255 255 255 0 0
0.58779 0 0.80902 -0.518446 -0.320426 -0.754409 255 255 255 255 0 0
0.72361 0.44722 0.52573 -0.642487 -0.39709 -0.934905 255 255 255 255 0 0
0.26287 0.52574 0.80901 -0.518461 -0.320436 -0.754431 255 255 255 255 0 0
0.95106 0 0.30901 -0.877704 -0.320419 -0.259949 255 255 255 255 0 0
0.85065 0.52574 0 -0.877727 -0.320427 -0.259955 255 255 255 255 0 0
0.72361 0.44722 0.52573 -1.08768 -0.397075 -0.322138 255 255 255 255 0 0
0.95106 0 0.30901 -1.02862 -0.196455 0 255 255 255 255 0 0
0.95106 0 -0.30901 -1.02862 -0.196455 0 255 255 255 255 0 0
0.85065 0.52574 0 -1.02857 -0.196445 0 255 255 255 255 0 0
0.95106 0 -0.30901 -0.877704 -0.320419 0.259949 255 255 255 255 0 0
0.72361 0.44722 -0.52573 -1.08768 -0.397075 0.322138 255 255 255 255 0 0
0.85065 0.52574 0 -0.877727 -0.320427 0.259955 255 255 255 255 0 0
0.58779 0 -0.80902 -0.518446 -0.320426 0.754409 255 255 255 255 0 0
0.26287 0.52574 -0.80901 -0.518461 -0.320436 0.754431 255 255 255 255 0 0
0.72361 0.44722 -0.52573 -0.642487 -0.39709 0.934905 255 255 255 255 0 0
0.58779 0 -0.80902 -0.317853 -0.196459 0.978274 255 255 255 255 0 0
0 0 -1 -0.31785 -0.196457 0.978264 255 255 255 255 0 0
0.26287 0.52574 -0.80901 -0.317846 -0.196455 0.978253 255 255 255 255 0 0
0 0 -1 -0.0240031 -0.320425 0.915075 255 255 255 255 0 0
-0.27639 0.44722 -0.85065 -0.0297458 -0.397087 1.13401 255 255 255 255 0 0
0.26287 0.52574 -0.80901 -0.0240032 -0.320427 0.915079 255 255 255 255 0 0
-0.58779 0 -0.80902 0.557273 -0.32043 0.726209 255 255 255 255 0 0
-0.68819 0.52574 -0.5 0.557285 -0.320437 0.726225 255 255 255 255 0 0
-0.27639 0.44722 -0.85065 0.690593 -0.397088 0.899944 255 255 255 255 0 0
-0.58779 0 -0.80902 0.832172 -0.19645 0.604594 255 255 255 255 0 0
-0.95106 0 -0.30901 0.832165 -0.196448 0.604589 255 255 255 255 0 0
-0.68819 0.52574 -0.5 0.832163 -0.196448 0.604587 255 255 255 255 0 0
-0.95106 0 -0.30901 0.862875 -0.32042 0.3056 255 255 255 255 0 0
-0.89443 0.44722 0 1.06932 -0.39708 0.378715 255 255 255 255 0 0
-0.68819 0.52574 -0.5 0.862874 -0.320419 0.305599 255 255 255 255 0 0
-0.58779 0 0.80902 0.297322 -0.121844 -0.915085 255 255 255 255 0 0
0 0 1 0.297327 -0.121846 -0.915099 255 255 255 255 0 0
-0.27639 0.44722 0.85065 0.368445 -0.15099 -1.13398 255 255 255 255 0 0
-0.58779 0 0.80902 0.317853 0.196459 -0.978274 255 255 255 255 0 0
-0.26287 -0.52574 0.80901 0.317846 0.196455 -0.978253 255 255 255 255 0 0
0 0 1 0.31785 0.196457 -0.978264 255 255 255 255 0 0
-0.26287 -0.52574 0.80901 0.0240032 0.320427 -0.915079 255 255 255 255 0 0
0.27639 -0.44722 0.85065 0.0297458 0.397087 -1.13401 255 255 255 255 0 0
0 0 1 0.0240031 0.320425 -0.915075 255 255 255 255 0 0
0.58779 0 0.80902 -0.778427 -0.121837 -0.565547 255 255 255 255 0 0
0.95106 0 0.30901 -0.778426 -0.121837 -0.565546 255 255 255 255 0 0
0.72361 0.44722 0.52573 -0.964635 -0.150982 -0.700832 255 255 255 255 0 0
0.58779 0 0.80902 -0.832172 0.19645 -0.604594 255 255 255 255 0 0
0.68819 -0.52574 0.5 -0.832163 0.196448 -0.604587 255 255 255 255 0 0
0.95106 0 0.30901 -0.832165 0.196448 -0.604589 255 255 255 255 0 0
0.68819 -0.52574 0.5 -0.862874 0.320419 -0.305599 255 255 255 255 0 0
0.89443 -0.44722 0 -1.06932 0.39708 -0.378715 255 255 255 255 0 0
0.95106 0 0.30901 -0.862875 0.32042 -0.3056 255 255 255 255 0 0
0.95106 0 -0.30901 -0.778426 -0.121837 0.565546 255 255 255 255 0 0
0.58779 0 -0.80902 -0.778427 -0.121837 0.565547 255 255 255 255 0 0
0.72361 0.44722 -0.52573 -0.964635 -0.150981 0.700832 255 255 255 255 0 0
0.95106 0 -0.30901 -0.832165 0.196448 0.604589 255 255 255 255 0 0
0.68819 -0.52574 -0.5 -0.832163 0.196448 0.604587 255 255 255 255 0 0
0.58779 0 -0.80902 -0.832172 0.19645 0.604594 255 255 255 255 0 0
0.68819 -0.52574 -0.5 -0.557285 0.320437 0.726225 255 255 255 255 0 0
0.27639 -0.44722 -0.85065 -0.690593 0.397088 0.899944 255 255 255 255 0 0
0.58779 0 -0.80902 -0.557273 0.32043 0.726209 255 255 255 255 0 0
0 0 -1 0.297327 -0.121846 0.915099 255 255 255 255 0 0
-0.58779 0 -0.80902 0.297322 -0.121844 0.915085 255 255 255 255 0 0
-0.27639 0.44722 -0.85065 0.368445 -0.15099 1.13398 255 255 255 255 0 0
0 0 -1 0.31785 0.196457 0.978264 255 255 255 255 0 0
-0.26287 -0.52574 -0.80901 0.317846 0.196455 0.978253 255 255 255 255 0 0
-0.58779 0 -0.80902 0.317853 0.196459 0.978274 255 255 255 255 0 0
-0.26287 -0.52574 -0.80901 0.518461 0.320436 0.754431 255 255 255 255 0 0
-0.72361 -0.44722 -0.52573 0.642487 0.39709 0.934905 255 255 255 255 0 0
-0.58779 0 -0.80902 0.518446 0.320426 0.754409 255 255 255 255 0 0
-0.95106 0 -0.30901 0.962196 -0.12184 0 255 255 255 255 0 0
-0.95106 0 0.30901 0.962196 -0.12184 0 255 255 255 255 0 0
-0.89443 0.44722 0 1.19231 -0.150979 0 255 255 255 255 0 0
-0.95106 0 -0.30901 1.02862 0.196455 0 255 255 255 255 0 0
-0.85065 -0.52574 0 1.02857 0.196445 0 255 255 255 255 0 0
-0.95106 0 0.30901 1.02862 0.196455 0 255 255 255 255 0 0
-0.85065 -0.52574 0 0.877727 0.320427 -0.259955 255 255 255 255 0 0
-0.72361 -0.44722 0.52573 1.08768 0.397075 -0.322138 255 255 255 255 0 0
-0.95106 0 0.30901 0.877704 0.320419 -0.259949 255 255 255 255 0 0
-0.42532 -0.85065 0.30901 0.457087 0.641768 -0.565542 255 255 255 255 0 0
-0.26287 -0.52574 0.80901 0.457094 0.641778 -0.56555 255 255 255 255 0 0
-0.72361 -0.44722 0.52573 0.566423 0.79528 -0.700819 255 255 255 255 0 0
-0.42532 -0.85065 0.30901 0.196443 0.832181 -0.604592 255 255 255 255 0 0
0.16246 -0.85065 0.49999 0.196439 0.832165 -0.604581 255 255 255 255 0 0
-0.26287 -0.52574 0.80901 0.19644 0.832169 -0.604583 255 255 255 255 0 0
0.16246 -0.85065 0.49999 -0.0373708 0.64177 -0.726207 255 255 255 255 0 0
0.27639 -0.44722 0.85065 -0.0463101 0.795286 -0.89992 255 255 255 255 0 0
-0.26287 -0.52574 0.80901 -0.0373706 0.641766 -0.726202 255 255 255 255 0 0
0.16246 -0.85065 0.49999 -0.396614 0.641772 -0.60949 255 255 255 255 0 0
0.68819 -0.52574 0.5 -0.396612 0.641769 -0.609487 255 255 255 255 0 0
0.27639 -0.44722 0.85065 -0.491479 0.795275 -0.755272 255 255 255 255 0 0
0.16246 -0.85065 0.49999 -0.514291 0.832175 -0.37366 255 255 255 255 0 0
0.52573 -0.85065 0 -0.51429 0.832173 -0.373659 255 255 255 255 0 0
0.68819 -0.52574 0.5 -0.514286 0.832166 -0.373657 255 255 255 255 0 0
0.52573 -0.85065 0 -0.702221 0.641769 -0.188869 255 255 255 255 0 0
0.89443 -0.44722 0 -0.870186 0.795275 -0.234044 255 255 255 255 0 0
0.68819 -0.52574 0.5 -0.702213 0.641761 -0.188866 255 255 255 255 0 0
0.52573 -0.85065 0 -0.702221 0.641769 0.188869 255 255 255 255 0 0
0.68819 -0.52574 -0.5 -0.702213 0.641761 0.188866 255 255 255 255 0 0
0.89443 -0.44722 0 -0.870186 0.795275 0.234044 255 255 255 255 0 0
0.52573 -0.85065 0 -0.51429 0.832173 0.373659 255 255 255 255 0 0
0.16246 -0.85065 -0.49999 -0.514291 0.832175 0.37366 255 255 255 255 0 0
0.68819 -0.52574 -0.5 -0.514286 0.832166 0.373657 255 255 255 255 0 0
0.16246 -0.85065 -0.49999 -0.396614 0.641772 0.60949 255 255 255 255 0 0
0.27639 -0.44722 -0.85065 -0.491479 0.795275 0.755272 255 255 255 255 0 0
0.68819 -0.52574 -0.5 -0.396612 0.641769 0.609487 255 255 255 255 0 0
-0.85065 -0.52574 0 0.679117 0.641776 -0.259957 255 255 255 255 0 0
-0.42532 -0.85065 0.30901 0.67911 0.64177 -0.259955 255 255 255 255 0 0
-0.72361 -0.44722 0.52573 0.841554 0.795282 -0.322136 255 255 255 255 0 0
-0.85065 -0.52574 0 0.635688 0.83216 0 255 255 255 255 0 0
-0.42532 -0.85065 -0.30901 0.635702 0.832179 0 255 255 255 255 0 0
-0.42532 -0.85065 0.30901 0.635702 0.832179 0 255 255 255 255 0 0
-0.42532 -0.85065 -0.30901 0.321331 0.91509 0 255 255 255 255 0 0
0 -1 0 0.398193 1.13398 0 255 255 255 255 0 0
-0.42532 -0.85065 0.30901 0.321331 0.91509 0 255 255 255 255 0 0
0.16246 -0.85065 -0.49999 -0.0373708 0.64177 0.726207 255 255 255 255 0 0
-0.26287 -0.52574 -0.80901 -0.0373706 0.641766 0.726202 255 255 255 255 0 0
0.27639 -0.44722 -0.85065 -0.0463101 0.795286 0.89992 255 255 255 255 0 0
0.16246 -0.85065 -0.49999 0.196439 0.832165 0.604581 255 255 255 255 0 0
-0.42532 -0.85065 -0.30901 0.196443 0.832181 0.604592 255 255 255 255 0 0
-0.26287 -0.52574 -0.80901 0.19644 0.832169 0.604583 255 255 255 255 0 0
-0.42532 -0.85065 -0.30901 0.457087 0.641769 0.565542 255 255 255 255 0 0
-0.72361 -0.44722 -0.52573 0.566423 0.79528 0.700819 255 255 255 255 0 0
-0.26287 -0.52574 -0.80901 0.457094 0.641778 0.56555 255 255 255 255 0 0
3 1 0 2 
3 4 3 5 
3 7 6 8 
3 10 9 11 
3 13 12 14 
3 16 15 17 
3 19 18 20 
3 22 21 23 
3 25 24 26 
3 28 27 29 
3 31 30 32 
3 34 33 35 
3 37 36 38 
3 40 39 41 
3 43 42 44 
3 46 45 47 
3 49 48 50 
3 52 51 53 
3 55 54 56 
3 58 57 59 
3 61 60 62 
3 64 63 65 
3 67 66 68 
3 70 69 71 
3 73 72 74 
3 76 75 77 
3 79 78 80 
3 82 81 83 
3 85 84 86 
3 88 87 89 
3 91 90 92 
3 94 93 95 
3 97 96 98 
3 100 99 101 
3 103 102 104 
3 106 105 107 
3 109 108 110 
3 112 111 113 
3 115 114 116 
3 118 117 119 
3 121 120 122 
3 124 123 125 
3 127 126 128 
3 130 129 131 
3 133 132 134 
3 136 135 137 
3 139 138 140 
3 142 141 143 
3 145 144 146 
3 148 147 149 
3 151 150 152 
3 154 153 155 
3 157 156 158 
3 160 159 161 
3 163 162 164 
3 166 165 167 
3 169 168 170 
3 172 171 173 
3 175 174 176 
3 178 177 179 
3 181 180 182 
3 184 183 185 
3 187 186 188 
3 190 189 191 
3 193 192 194 
3 196 195 197 
3 199 198 200 
3 202 201 203 
3 205 204 206 
3 208 207 209 
3 211 210 212 
3 214 213 215 
3 217 216 218 
3 220 219 221 
3 223 222 224 
3 226 225 227 
3 229 228 230 
3 232 231 233 
3 235 234 236 
3 238 237 239 
