ply
format ascii 1.0
comment VCGLIB generated
element vertex 626
property float x
property float y
property float z
property float nx
property float ny
property float nz
property float texture_u
property float texture_v
element face 676
property list uchar int vertex_indices
end_header
5 0 -95 0 -1 0 0.187 0.7803
3.25 0 -94 0 -1 0 0.1841 0.7735
2.25 0 -97.75 0 -1 0 0.1981 0.7716
6 0 -96.75 0 -1 0 0.1928 0.7847
2.25 2 -97.75 0 1 0 0.0579 0.0518
3.25 2 -94 0 1 0 0.0827 0.0548
5 2 -95 0 1 0 0.0779 0.0669
6 2 -96.75 0 1 0 0.0677 0.0749
49.4656 0 -12.6924 0.314896 -0.709881 0.630008 0.9137 0.4545
49.4656 2 -12.6924 0.369678 0.709881 0.599506 0.9011 0.4516
24.4703 2 -2.84897 0.200737 0.709747 0.675251 0.9401 0.2828
24.4703 0 -2.84897 0.141407 -0.709747 0.690118 0.9527 0.2857
97.1492 0 -75.5217 0.675242 -0.709748 0.200765 0.5462 0.8337
97.1492 2 -75.5217 0.690113 0.709747 0.141436 0.5399 0.8224
87.3075 2 -50.5342 0.629999 0.70988 0.314915 0.6914 0.7384
87.3075 0 -50.5342 0.599502 -0.709881 0.369685 0.6976 0.7497
3.33333 0 -100 0 -0.707107 -0.707107 0.3054 0.9017
3.33333 2 -100 0 0.707107 -0.707107 0.3001 0.9066
6.5 2 -100 0 0.707107 -0.707107 0.2923 0.8982
6.5 0 -100 0 -0.707107 -0.707107 0.2976 0.8933
0 0 -93.5 -0.707107 -0.707107 0 0.0827 0.6614
0 2 -93.5 -0.6 0.8 0 0.0773 0.6663
0 2 -96.6667 -0.83205 0.5547 0 0.0695 0.6579
0 0 -96.6667 -0.707107 -0.707107 0 0.0749 0.653
3 0 -90.25 0 -1 0 0.1707 0.771
6 0 -91.5 0 -1 0 0.1739 0.7823
3 2 -90.25 0.0744826 0.915981 0.394247 0.1065 0.0499
6 2 -91.5 0.249951 0.826003 0.505217 0.1012 0.0701
100 0 -100 0.6799 -0.684496 -0.263061 0.4119 0.9081
100 2 -100 0.422112 0.424965 -0.800766 0.4056 0.8968
71.1397 2 -28.8606 0.521194 0.710386 0.472978 0.8387 0.6568
71.1397 0 -28.8606 0.472978 -0.710386 0.521194 0.8449 0.6681
0 0 -90 -0.6 -0.8 0 0.0913 0.6708
0 2 -90 -0.857275 0.453758 0.243275 0.0859 0.6757
0 2 -100 -0.666667 0.666667 -0.333333 0.0614 0.6489
0 0 -100 -0.408248 -0.408248 -0.816497 0.0667 0.644
9.75 0 -97 0 -1 0 0.1921 0.7983
8.5 0 -94 0 -1 0 0.1818 0.7924
8.5 2 -94 0.408887 0.881338 0.236761 0.0875 0.0884
9.75 2 -97 0.449948 0.882827 0.134772 0.0694 0.099
0 2 0 -0.263088 0.684489 0.679896 0.9746 0.1332
0 0 0 -0.800773 -0.424957 0.422106 0.9872 0.1361
10 2 -100 0.424244 0.536211 -0.729722 0.2836 0.8889
10 0 -100 0 -0.707107 -0.707107 0.2889 0.884
7.5 0 -92.5 0 -1 0 0.1768 0.7882
7.5 2 -92.5 0.368604 0.828948 0.420685 0.0961 0.0806
10.4983 0 -100 0 -0.707107 -0.707107 0.2117 0.7952
10.2358 0 -96.8817 0 -1 0 0.2005 0.7929
10.4983 1.25 -100 0.209295 0.642063 -0.73753 0.2843 0.8858
10.2358 1.25 -96.8817 0.461609 0.882786 0.0872093 0.0735 0.1085
8.94083 1.25 -93.7642 0.423274 0.881468 0.20941 0.0925 0.0979
7.85356 1.25 -92.1464 0.352033 0.883703 0.30845 0.1025 0.0907
6.23592 1.25 -91.0592 0.236761 0.881338 0.408887 0.1111 0.0731
3.11836 1.25 -89.7642 0.134772 0.882828 0.449946 0.1168 0.0522
0 1.25 -89.5017 -0.729723 0.536212 0.424242 0.1185 0.0326
0 0 -89.5017 -0.707107 -0.707107 0 0.0925 0.6721
3.11836 0 -89.7642 0 -1 0 0.178 0.7641
6.23592 0 -91.0592 0 -1 0 0.1813 0.7759
7.85356 0 -92.1464 0 -1 0 0.1845 0.7822
8.94083 0 -93.7642 0 -1 0 0.1898 0.7868
14.4838 0 -100 0 -0.707107 -0.707107 0.2099 0.8096
14.1217 0 -95.9331 0 -1 0 0.1954 0.8065
14.4838 1.25 -100 -0.402068 0.508424 -0.761477 0.2744 0.8752
14.1217 1.25 -95.9331 -0.450686 0.882641 -0.133514 0.0919 0.135
12.465 1.25 -91.8719 -0.405701 0.881665 -0.240986 0.1163 0.1208
10.682 1.25 -89.3181 -0.31155 0.883179 -0.350617 0.1311 0.1071
8.12808 1.25 -87.535 -0.209986 0.881743 -0.422415 0.1402 0.0892
4.06683 1.25 -85.8783 -0.0878597 0.88261 -0.461822 0.1471 0.0618
0 1.25 -85.5161 -0.75341 0.625203 -0.203703 0.1458 0.0355
0 0 -85.5161 -0.707107 -0.707107 0 0.1023 0.6828
4.06683 0 -85.8783 0 -1 0 0.1635 0.7658
8.12808 0 -87.535 0 -1 0 0.1677 0.7812
10.682 0 -89.3181 0 -1 0 0.173 0.7912
12.465 0 -91.8719 0 -1 0 0.1814 0.7987
14.9818 0 -100 0 -0.707107 -0.707107 0.2269 0.7979
14.6076 0 -95.8153 0 -1 0 0.212 0.7947
14.9818 2 -100 -0.203703 0.625203 -0.75341 0.2712 0.8757
14.6076 2 -95.8153 -0.461822 0.88261 -0.0878597 0.0956 0.1462
12.9042 2 -91.6328 -0.422415 0.881743 -0.209986 0.1208 0.1316
11.0355 2 -88.9644 -0.350617 0.883179 -0.31155 0.1371 0.119
8.36711 2 -87.0958 -0.240986 0.881665 -0.4057 0.1515 0.0917
4.18472 2 -85.3925 -0.133514 0.882641 -0.450686 0.1587 0.0634
0 2 -85.0181 -0.761477 0.508424 -0.402068 0.1608 0.0371
0 0 -85.0181 -0.707107 -0.707107 0 0.1036 0.6841
4.18472 0 -85.3925 0 -1 0 0.179 0.7526
8.36711 0 -87.0958 0 -1 0 0.1833 0.7684
11.0355 0 -88.9644 0 -1 0 0.1888 0.7788
12.9042 0 -91.6328 0 -1 0 0.1976 0.7867
15.9779 0 -100 0 -0.707107 -0.707107 0.2265 0.8015
15.5794 0 -95.5795 0 -1 0 0.2107 0.7981
15.9779 2 -100 0.501425 0.431327 -0.75002 0.2687 0.8731
15.5794 2 -95.5795 0.55819 0.813147 0.164969 0.1101 0.1551
13.7823 2 -91.1544 0.501231 0.811979 0.299096 0.1367 0.1396
11.7426 2 -88.2572 0.386455 0.813933 0.433781 0.1534 0.124
8.84553 2 -86.2178 0.259907 0.812033 0.522542 0.1638 0.1036
4.42047 2 -84.4206 0.108916 0.813124 0.57181 0.1713 0.0738
0 2 -84.0222 -0.759111 0.60256 0.246316 0.1699 0.0452
0 0 -84.0222 -0.707107 -0.707107 0 0.106 0.6868
4.42047 0 -84.4206 0 -1 0 0.1754 0.753
8.84553 0 -86.2178 0 -1 0 0.1799 0.7697
11.7426 0 -88.2572 0 -1 0 0.186 0.7811
13.7823 0 -91.1544 0 -1 0 0.1955 0.7897
16.4758 0 -100 0 -0.707107 -0.707107 0.2263 0.8033
16.0654 0 -95.4617 0 -1 0 0.2101 0.7998
16.4758 0.5 -100 0.246317 0.602558 -0.759112 0.2715 0.868
16.0654 0.5 -95.4617 0.57181 0.813124 0.108916 0.1177 0.168
14.2212 0.5 -90.915 0.522542 0.812033 0.259907 0.145 0.152
12.0962 0.5 -87.9039 0.433781 0.813933 0.386455 0.164 0.1389
9.08506 0.5 -85.7789 0.299097 0.811978 0.501232 0.1775 0.1086
4.53828 0.5 -83.9347 0.164969 0.813148 0.55819 0.1854 0.078
0 0.5 -83.5242 -0.750021 0.431328 0.501423 0.1897 0.0499
0 0 -83.5242 -0.707107 -0.707107 0 0.1072 0.6881
4.53828 0 -83.9347 0 -1 0 0.1735 0.7532
9.08506 0 -85.7789 0 -1 0 0.1782 0.7704
12.0962 0 -87.9039 0 -1 0 0.1845 0.7822
14.2212 0 -90.915 0 -1 0 0.1945 0.7912
17.4718 0 -100 0 -0.707107 -0.707107 0.2258 0.8069
17.0372 0 -95.2261 0 -1 0 0.2088 0.8032
17.4718 0.5 -100 -0.086559 0.696217 -0.712593 0.269 0.8654
17.0372 0.5 -95.2261 -0.0885775 0.995725 -0.0262022 0.1331 0.1772
15.0988 0.5 -90.4356 -0.0795908 0.995679 -0.0478375 0.1619 0.1605
12.8033 0.5 -87.1967 -0.0615778 0.995725 -0.0688404 0.1805 0.143
9.56442 0.5 -84.9011 -0.0413627 0.995684 -0.0830828 0.1923 0.1202
4.77383 0.5 -82.9628 -0.0173348 0.995712 -0.0908708 0.2004 0.0879
0 0.5 -82.5283 -0.710483 0.702361 -0.0436144 0.1989 0.057
0 0 -82.5283 -0.707107 -0.707107 0 0.1097 0.6908
4.77383 0 -82.9628 0 -1 0 0.1699 0.7536
9.56442 0 -84.9011 0 -1 0 0.1748 0.7717
12.8033 0 -87.1967 0 -1 0 0.1817 0.7844
15.0988 0 -90.4356 0 -1 0 0.1923 0.7941
21.4907 0 -100 0 -0.707107 -0.707107 0.2241 0.8214
20.9248 0 -94.2847 0 -1 0 0.2037 0.8168
21.4907 1.25 -100 -0.0434058 0.702323 -0.710534 0.257 0.8566
20.9248 1.25 -94.2847 -0.0905783 0.995735 -0.0175161 0.1474 0.2053
18.6081 1.25 -88.5158 -0.0830829 0.995684 -0.0413625 0.182 0.1852
15.6317 1.25 -84.3683 -0.0688404 0.995725 -0.061578 0.2057 0.1624
11.484 1.25 -81.3919 -0.0478375 0.995679 -0.0795908 0.2211 0.1333
5.71544 1.25 -79.0753 -0.0261118 0.995714 -0.0887238 0.2309 0.0945
0 1.25 -78.5447 -0.712479 0.696281 -0.0869824 0.2294 0.0577
0 0 -78.5447 -0.707107 -0.707107 0 0.1195 0.7015
5.71544 0 -79.0753 0 -1 0 0.1555 0.7553
11.484 0 -81.3919 0 -1 0 0.1613 0.7771
15.6317 0 -84.3683 0 -1 0 0.1702 0.7934
18.6081 0 -88.5158 0 -1 0 0.1839 0.8059
21.9926 0 -100 0 -0.707107 -0.707107 0.2238 0.8232
21.4108 0 -94.1672 0 -1 0 0.203 0.8185
21.9926 1.25 -100 0 0.707107 -0.707107 0.2558 0.8552
21.4108 1.25 -94.1672 0 1 0 0.1592 0.2138
19.0464 1.25 -88.2753 0 1 0 0.1947 0.1934
15.9853 1.25 -84.0147 0 1 0 0.2192 0.17
11.7247 1.25 -80.9536 0 1 0 0.2349 0.1401
5.83294 1.25 -78.5892 0 1 0 0.2447 0.1003
0 1.25 -78 -0.707107 0.707107 0 0.2432 0.0625
0 0 -78 -0.707107 -0.707107 0 0.1208 0.7029
5.83294 0 -78.5892 0 -1 0 0.1537 0.7555
11.7247 0 -80.9536 0 -1 0 0.1596 0.7778
15.9853 0 -84.0147 0 -1 0 0.1688 0.7945
19.0464 0 -88.2753 0 -1 0 0.1828 0.8074
22.9883 0 -100 0 -0.707107 -0.707107 0.2234 0.8268
22.3828 0 -93.9322 0 -1 0 0.2017 0.8219
22.9883 1.25 -100 0 0.707107 -0.707107 0.2533 0.8526
22.3828 1.25 -93.9322 0 1 0 0.1616 0.2198
19.9228 1.25 -87.7939 0 1 0 0.1986 0.1986
16.6924 1.25 -83.3075 0 1 0 0.2243 0.1739
12.2062 1.25 -80.0772 0 1 0 0.2409 0.1424
6.06792 1.25 -77.6172 0 1 0 0.2511 0.101
0 1.25 -77.0042 -0.707107 0.707107 0 0.2496 0.0617
0 0 -77.0042 -0.707107 -0.707107 0 0.1233 0.7056
6.06792 0 -77.6172 0 -1 0 0.1501 0.7559
12.2062 0 -80.0772 0 -1 0 0.1562 0.7791
16.6924 0 -83.3075 0 -1 0 0.1659 0.7967
19.9228 0 -87.7939 0 -1 0 0.1807 0.8103
49.5078 0 -100 0 -0.707107 -0.707107 0.2674 0.8788
48.1414 0 -87.7081 0 -1 0 0.2236 0.8685
49.5078 1.25 -100 0 0.707107 -0.707107 0.1875 0.7822
48.1414 1.25 -87.7081 0 1 0 0.2244 0.3787
43.1453 1.25 -75.0281 0 1 0 0.3009 0.3354
35.4308 1.25 -64.5692 0 1 0 0.3608 0.2768
24.9721 1.25 -56.8547 0 1 0 0.4007 0.2031
12.2917 1.25 -51.8583 0 1 0 0.4212 0.1176
0 1.25 -50.4942 -0.707107 0.707107 0 0.4189 0.0379
0 0 -50.4942 -0.707107 -0.707107 0 0.1884 0.7765
12.2917 0 -51.8583 0 -1 0 0.11 0.7235
24.9721 0 -56.8547 0 -1 0 0.1225 0.7714
35.4308 0 -64.5692 0 -1 0 0.1457 0.8124
43.1453 0 -75.0281 0 -1 0 0.18 0.8449
50.5089 0 -100 0 -0.707107 -0.707107 0.267 0.8824
49.1139 0 -87.4742 0 -1 0 0.2223 0.8719
50.5089 1.25 -100 0 0.707107 -0.707107 0.185 0.7796
49.1139 1.25 -87.4742 0 1 0 0.2268 0.3847
44.0203 1.25 -74.5439 0 1 0 0.3048 0.3406
36.1378 1.25 -63.8622 0 1 0 0.3659 0.2807
25.4563 1.25 -55.9797 0 1 0 0.4067 0.2054
12.5256 1.25 -50.8861 0 1 0 0.4276 0.1182
0 1.25 -49.4989 -0.707107 0.707107 0 0.4252 0.037
0 0 -49.4989 -0.707107 -0.707107 0 0.1909 0.7792
12.5256 0 -50.8861 0 -1 0 0.1064 0.7239
25.4563 0 -55.9797 0 -1 0 0.1191 0.7727
36.1378 0 -63.8622 0 -1 0 0.1428 0.8147
44.0203 0 -74.5439 0 -1 0 0.1779 0.8478
76.9953 0 -100 0 -0.707107 -0.707107 0.3089 0.936
74.8347 0 -81.0956 0 -1 0 0.2416 0.9198
76.9953 1.25 -100 0 0.707107 -0.707107 0.1193 0.7092
74.8347 1.25 -81.0956 0 1 0 0.2906 0.5433
67.2061 1.25 -61.7117 0 1 0 0.4076 0.4771
54.8761 1.25 -45.1239 0 1 0 0.5024 0.3835
38.2886 1.25 -32.7942 0 1 0 0.5663 0.2665
18.8961 1.25 -25.1633 0 1 0 0.5976 0.1358
0 1.25 -23.0214 -0.707107 0.707107 0 0.5943 0.0132
0 0 -23.0214 -0.707107 -0.707107 0 0.256 0.85
18.8961 0 -25.1633 0 -1 0 0.0644 0.6936
38.2886 0 -32.7942 0 -1 0 0.0833 0.7668
54.8761 0 -45.1239 0 -1 0 0.1205 0.832
67.2061 0 -61.7117 0 -1 0 0.175 0.8838
77.9903 0 -100 0 -0.707107 -0.707107 0.3338 0.9198
75.805 0 -80.8536 0 -1 0 0.2657 0.9035
77.9903 1.25 -100 0 0.707107 -0.707107 0.1168 0.7066
75.805 1.25 -80.8536 0 1 0 0.293 0.5492
68.0803 1.25 -61.2261 0 1 0 0.4115 0.4823
55.5833 1.25 -44.4167 0 1 0 0.5076 0.3874
38.7744 1.25 -31.92 0 1 0 0.5723 0.2688
19.1376 1.25 -24.1929 0 1 0 0.604 0.1365
0 1.25 -21.997 -0.707107 0.707107 0 0.6009 0.0123
0 0 -21.997 -0.707107 -0.707107 0 0.2585 0.8528
19.1376 0 -24.1929 0 -1 0 0.0861 0.6743
38.7744 0 -31.92 0 -1 0 0.1053 0.7485
55.5833 0 -44.4167 0 -1 0 0.143 0.8145
68.0803 0 -61.2261 0 -1 0 0.1982 0.867
78.4869 0 -100 0 -0.707107 -0.707107 0.3336 0.9216
76.29 0 -80.7328 0 -1 0 0.265 0.9052
78.4869 1.25 -100 0.0872693 0.705349 -0.703468 0.1156 0.7053
76.29 1.25 -80.7328 0.0886092 0.995718 0.0263291 0.2942 0.5522
68.5175 1.25 -60.9831 0.0789261 0.995697 0.0485672 0.4134 0.4849
55.9369 1.25 -44.0633 0.062163 0.995708 0.0685648 0.5102 0.3893
39.0172 1.25 -31.4828 0.0413714 0.9957 0.0828868 0.5753 0.27
19.2587 1.25 -23.7078 0.0184895 0.995715 0.0906114 0.6072 0.1368
0 1.25 -21.5003 -0.705974 0.706891 0.0436484 0.6041 0.0118
0 0 -21.5003 -0.707107 -0.707107 0 0.2597 0.8541
19.2587 0 -23.7078 0 -1 0 0.0843 0.6745
39.0172 0 -31.4828 0 -1 0 0.1036 0.7491
55.9369 0 -44.0633 0 -1 0 0.1416 0.8157
68.5175 0 -60.9831 0 -1 0 0.1971 0.8685
82.5297 0 -100 0 -0.707107 -0.707107 0.3318 0.9362
80.1714 0 -79.7653 0 -1 0 0.2598 0.9188
82.5297 0.5 -100 0.0434788 0.706907 -0.705969 0.1076 0.6927
80.1714 0.5 -79.7653 0.0903709 0.995737 0.0184768 0.3196 0.5867
72.0139 0.5 -59.0406 0.0828867 0.9957 0.0413746 0.444 0.5155
58.7653 0.5 -41.2347 0.0685648 0.995708 0.0621628 0.5455 0.4146
40.9597 0.5 -27.9861 0.0485658 0.995697 0.0789262 0.6143 0.2892
20.227 0.5 -19.8267 0.0263331 0.995708 0.0887293 0.6483 0.1499
0 0.5 -17.4894 -0.703468 0.705306 0.0876107 0.6459 0.0193
0 0 -17.4894 -0.707107 -0.707107 0 0.2696 0.8648
20.227 0 -19.8267 0 -1 0 0.0699 0.6763
40.9597 0 -27.9861 0 -1 0 0.0902 0.7546
58.7653 0 -41.2347 0 -1 0 0.1301 0.8246
72.0139 0 -59.0406 0 -1 0 0.1885 0.8802
83.5231 0 -100 0 -0.707107 -0.707107 0.3314 0.9398
81.1414 0 -79.5222 0 -1 0 0.2585 0.9221
83.5231 0.5 -100 -0.463518 0.39953 -0.790903 0.1051 0.6901
81.1414 0.5 -79.5222 -0.558828 0.812496 -0.166019 0.334 0.6027
72.8881 0.5 -58.5544 -0.496345 0.812587 -0.305522 0.4605 0.5311
59.4725 0.5 -40.5278 -0.391125 0.813008 -0.431323 0.5636 0.4293
41.4456 0.5 -27.1121 -0.260303 0.812619 -0.521434 0.6331 0.3021
20.4695 0.5 -18.8566 -0.116551 0.812447 -0.571267 0.667 0.1607
0 0.5 -16.496 -0.779503 0.58001 -0.236567 0.6637 0.0279
0 0 -16.496 -0.707107 -0.707107 0 0.272 0.8675
20.4695 0 -18.8566 0 -1 0 0.0663 0.6768
41.4456 0 -27.1121 0 -1 0 0.0868 0.756
59.4725 0 -40.5278 0 -1 0 0.1272 0.8268
72.8881 0 -58.5544 0 -1 0 0.1864 0.8831
84.0197 0 -100 0 -0.707107 -0.707107 0.3312 0.9416
81.6264 0 -79.4008 0 -1 0 0.2578 0.9238
84.0197 2 -100 -0.236502 0.579907 -0.779599 0.0999 0.6925
81.6264 2 -79.4008 -0.571216 0.812428 -0.116934 0.3446 0.6204
73.325 2 -58.3117 -0.521424 0.81262 -0.260318 0.4725 0.5496
59.8261 2 -40.1742 -0.431325 0.813008 -0.391122 0.5897 0.4707
41.6886 2 -26.6751 -0.305514 0.812588 -0.496349 0.654 0.309
20.5908 2 -18.3715 -0.165817 0.812511 -0.558866 0.6881 0.1668
0 2 -15.9993 -0.790713 0.399673 -0.463717 0.7075 0.0386
0 0 -15.9993 -0.707107 -0.707107 0 0.2732 0.8688
20.5908 0 -18.3715 0 -1 0 0.0645 0.677
41.6886 0 -26.6751 0 -1 0 0.0851 0.7566
59.8261 0 -40.1742 0 -1 0 0.1258 0.828
73.325 0 -58.3117 0 -1 0 0.1853 0.8846
85.0131 0 -100 0 -0.707107 -0.707107 0.3307 0.9451
82.5964 0 -79.1578 0 -1 0 0.2565 0.9272
85.0131 2 -100 0.427541 0.541603 -0.723792 0.0974 0.6898
82.5964 2 -79.1578 0.451522 0.882129 0.134078 0.398 0.6487
74.1989 2 -57.8258 0.400985 0.882192 0.246879 0.5267 0.5759
60.5331 2 -39.4669 0.315982 0.882469 0.348431 0.6317 0.4722
42.1744 2 -25.8011 0.210316 0.88223 0.421233 0.7025 0.3426
20.8332 2 -17.4013 0.09407 0.882061 0.461648 0.737 0.1988
0 2 -15.0058 -0.734709 0.645133 0.209775 0.7336 0.0636
0 0 -15.0058 -0.707107 -0.707107 0 0.2757 0.8715
20.8332 0 -17.4013 0 -1 0 0.0609 0.6774
42.1744 0 -25.8011 0 -1 0 0.0817 0.758
60.5331 0 -39.4669 0 -1 0 0.1229 0.8302
74.1989 0 -57.8258 0 -1 0 0.1832 0.8875
85.5097 0 -100 0 -0.707107 -0.707107 0.3305 0.9469
83.0814 0 -79.0364 0 -1 0 0.2559 0.9289
85.5097 1.25 -100 0.209789 0.645226 -0.734624 0.0982 0.6866
83.0814 1.25 -79.0364 0.461614 0.882046 0.0943752 0.4036 0.6637
74.6358 1.25 -57.5828 0.421223 0.882231 0.210331 0.5337 0.5917
60.8867 1.25 -39.1136 0.348431 0.882469 0.315982 0.6486 0.5033
42.4175 1.25 -25.3641 0.246873 0.882191 0.400989 0.7169 0.3486
20.9543 1.25 -16.9162 0.133916 0.88214 0.451548 0.7515 0.2039
0 1.25 -14.5091 -0.723969 0.541446 0.427441 0.763 0.0716
0 0 -14.5091 -0.707107 -0.707107 0 0.2769 0.8728
20.9543 0 -16.9162 0 -1 0 0.059 0.6776
42.4175 0 -25.3641 0 -1 0 0.08 0.7587
60.8867 0 -39.1136 0 -1 0 0.1215 0.8313
74.6358 0 -57.5828 0 -1 0 0.1821 0.889
89.4831 0 -100 0 -0.707107 -0.707107 0.3287 0.9612
86.9619 0 -78.0656 0 -1 0 0.2506 0.9425
89.4831 1.25 -100 -0.398266 0.504487 -0.766079 0.0883 0.6761
86.9619 1.25 -78.0656 -0.451538 0.882141 -0.133945 0.4528 0.7066
78.1319 1.25 -55.6386 -0.400918 0.882196 -0.246974 0.5881 0.6301
63.715 1.25 -36.285 -0.316029 0.882464 -0.348401 0.6988 0.5207
44.3611 1.25 -21.8682 -0.210376 0.882232 -0.4212 0.7735 0.3841
21.9233 1.25 -13.0354 -0.094162 0.882446 -0.460894 0.8098 0.2329
0 1.25 -10.5041 -0.755612 0.623067 -0.202085 0.8063 0.0906
0 0 -10.5041 -0.707107 -0.707107 0 0.2867 0.8835
21.9233 0 -13.0354 0 -1 0 0.0446 0.6794
44.3611 0 -21.8682 0 -1 0 0.0665 0.7641
63.715 0 -36.285 0 -1 0 0.11 0.8402
78.1319 0 -55.6386 0 -1 0 0.1735 0.9007
89.9797 0 -100 0 -0.707107 -0.707107 0.3498 0.9464
87.447 0 -77.9444 0 -1 0 0.2713 0.9275
89.9797 2 -100 -0.202497 0.622754 -0.75576 0.0851 0.6766
87.447 2 -77.9444 -0.461643 0.882063 -0.0940762 0.4626 0.7258
78.5689 2 -55.3956 -0.421189 0.882233 -0.210393 0.6007 0.6526
64.0686 2 -35.9317 -0.348401 0.882464 -0.316029 0.7234 0.5615
44.6042 2 -21.4312 -0.246965 0.882196 -0.400922 0.7947 0.3909
22.0442 2 -12.5502 -0.133965 0.882326 -0.45117 0.8324 0.2392
0 2 -10.0019 -0.765974 0.505303 -0.397434 0.8457 0.1
0 0 -10.0019 -0.707107 -0.707107 0 0.288 0.8849
22.0442 0 -12.5502 0 -1 0 0.0641 0.663
44.6042 0 -21.4312 0 -1 0 0.0862 0.7482
64.0686 0 -35.9317 0 -1 0 0.1299 0.8247
78.5689 0 -55.3956 0 -1 0 0.1938 0.8856
6.5 0 -100 0 -0.707107 -0.707107 0.2044 0.7879
3.33333 0 -100 0 -0.707107 -0.707107 0.2058 0.7765
3.33333 2 -100 0 0.707107 -0.707107 0.0445 0.0607
6.5 2 -100 0 0.707107 -0.707107 0.0473 0.081
0 0 -93.5 -0.707107 -0.707107 0 0.1838 0.7616
0 0 -96.6667 -0.707107 -0.707107 0 0.1952 0.763
0 2 -93.5 -0.6 0.8 0 0.083 0.0336
0 2 -96.6667 -0.83205 0.5547 0 0.0628 0.0365
71.1397 0 -28.8606 0.472978 -0.710386 0.521194 0.8758 0.6186
71.1397 2 -28.8606 0.521194 0.710386 0.472978 0.8632 0.6157
0 0 -100 -0.408248 -0.408248 -0.816497 0.3137 0.9105
0 2 -100 -0.666667 0.666667 -0.333333 0.3084 0.9155
10 0 -100 0 -0.707107 -0.707107 0.2028 0.8005
0 0 -100 -0.408248 -0.408248 -0.816497 0.2072 0.7645
0 0 -90 -0.6 -0.8 0 0.1711 0.7601
0 2 -100 -0.666667 0.666667 -0.333333 0.0415 0.0395
10 2 -100 0.424244 0.536211 -0.729722 0.0505 0.1033
0 2 -90 -0.857275 0.453758 0.243275 0.1054 0.0305
9.75 0 -97 0 -1 0 0.2012 0.7912
10 0 -100 0 -0.707107 -0.707107 0.2119 0.7934
10.4983 0 -100 0 -0.707107 -0.707107 0.2877 0.8827
10 2 -100 0.424244 0.536211 -0.729722 0.0532 0.1094
9.75 2 -97 0.449948 0.882827 0.134772 0.0711 0.1032
10.4983 1.25 -100 0.209295 0.642063 -0.73753 0.0549 0.1149
8.5 2 -94 0.408887 0.881338 0.236761 0.0894 0.093
7.5 2 -92.5 0.368604 0.828948 0.420685 0.0987 0.0863
7.5 2 -92.5 0.368604 0.828948 0.420685 0.1014 0.0819
6 2 -91.5 0.249951 0.826003 0.505217 0.1055 0.0713
7.85356 1.25 -92.1464 0.352033 0.883703 0.30845 0.1065 0.0846
3 2 -90.25 0.0744826 0.915981 0.394247 0.1111 0.0511
0 2 -90 -0.857275 0.453758 0.243275 0.1127 0.0323
0 1.25 -89.5017 -0.729723 0.536212 0.424242 0.0892 0.6752
0 0 -90 -0.6 -0.8 0 0.1802 0.753
3 0 -90.25 0 -1 0 0.1798 0.7639
0 0 -89.5017 -0.707107 -0.707107 0 0.1784 0.7528
6 0 -91.5 0 -1 0 0.183 0.7753
7.5 0 -92.5 0 -1 0 0.1859 0.7811
8.5 0 -94 0 -1 0 0.1909 0.7854
14.4838 0 -100 0 -0.707107 -0.707107 0.2778 0.8721
10.4983 1.25 -100 0.209295 0.642063 -0.73753 0.0627 0.1156
10.2358 1.25 -96.8817 0.461609 0.882786 0.0872093 0.0824 0.1111
14.4838 1.25 -100 -0.402068 0.508424 -0.761477 0.0662 0.141
8.94083 1.25 -93.7642 0.423274 0.881468 0.20941 0.1011 0.1
7.85356 1.25 -92.1464 0.352033 0.883703 0.30845 0.1105 0.0916
6.23592 1.25 -91.0592 0.236761 0.881338 0.408887 0.1159 0.0803
3.11836 1.25 -89.7642 0.134772 0.882828 0.449946 0.1214 0.0592
0 1.25 -89.5017 -0.729723 0.536212 0.424242 0.1203 0.0391
0 1.25 -85.5161 -0.75341 0.625203 -0.203703 0.099 0.6859
0 0 -85.5161 -0.707107 -0.707107 0 0.164 0.751
14.1217 0 -95.9331 0 -1 0 0.2126 0.793
14.4838 0 -100 0 -0.707107 -0.707107 0.2272 0.7961
14.9818 0 -100 0 -0.707107 -0.707107 0.2765 0.8708
14.4838 1.25 -100 -0.402068 0.508424 -0.761477 0.0691 0.15
14.1217 1.25 -95.9331 -0.450686 0.882641 -0.133514 0.0931 0.141
14.9818 2 -100 -0.203703 0.625203 -0.75341 0.0709 0.1555
12.465 1.25 -91.8719 -0.405701 0.881665 -0.240986 0.1175 0.1267
10.682 1.25 -89.3181 -0.31155 0.883179 -0.350617 0.1331 0.1147
10.682 1.25 -89.3181 -0.31155 0.883179 -0.350617 0.1388 0.1082
8.12808 1.25 -87.535 -0.209986 0.881743 -0.422415 0.146 0.0899
11.0355 2 -88.9644 -0.350617 0.883179 -0.31155 0.144 0.1108
4.06683 1.25 -85.8783 -0.0878597 0.88261 -0.461822 0.153 0.0625
0 1.25 -85.5161 -0.75341 0.625203 -0.203703 0.155 0.0369
0 2 -85.0181 -0.761477 0.508424 -0.402068 0.0982 0.689
0 0 -85.5161 -0.707107 -0.707107 0 0.1813 0.7376
4.06683 0 -85.8783 0 -1 0 0.1808 0.7524
0 0 -85.0181 -0.707107 -0.707107 0 0.1795 0.7373
8.12808 0 -87.535 0 -1 0 0.185 0.7677
10.682 0 -89.3181 0 -1 0 0.1903 0.7777
12.465 0 -91.8719 0 -1 0 0.1987 0.7853
15.9779 0 -100 0 -0.707107 -0.707107 0.2741 0.8681
14.9818 2 -100 -0.203703 0.625203 -0.75341 0.0813 0.1552
14.6076 2 -95.8153 -0.461822 0.88261 -0.0878597 0.1077 0.1491
15.9779 2 -100 0.501425 0.431327 -0.75002 0.0822 0.1616
12.9042 2 -91.6328 -0.422415 0.881743 -0.209986 0.1329 0.1344
11.0355 2 -88.9644 -0.350617 0.883179 -0.31155 0.1483 0.1201
8.36711 2 -87.0958 -0.240986 0.881665 -0.4057 0.1578 0.1014
4.18472 2 -85.3925 -0.133514 0.882641 -0.450686 0.1649 0.0731
0 2 -85.0181 -0.761477 0.508424 -0.402068 0.1636 0.0461
0 2 -84.0222 -0.759111 0.60256 0.246316 0.1006 0.6917
0 0 -84.0222 -0.707107 -0.707107 0 0.1759 0.7369
16.4758 0 -100 0 -0.707107 -0.707107 0.2728 0.8668
15.9779 2 -100 0.501425 0.431327 -0.75002 0.0879 0.1706
15.5794 2 -95.5795 0.55819 0.813147 0.164969 0.113 0.159
16.4758 0.5 -100 0.246317 0.602558 -0.759112 0.0919 0.18
13.7823 2 -91.1544 0.501231 0.811979 0.299096 0.1395 0.1434
11.7426 2 -88.2572 0.386455 0.813933 0.433781 0.1578 0.1308
11.7426 2 -88.2572 0.386455 0.813933 0.433781 0.1606 0.1268
8.84553 2 -86.2178 0.259907 0.812033 0.522542 0.1677 0.1057
12.0962 0.5 -87.9039 0.433781 0.813933 0.386455 0.1701 0.1305
4.42047 2 -84.4206 0.108916 0.813124 0.57181 0.1754 0.0759
0 2 -84.0222 -0.759111 0.60256 0.246316 0.1796 0.0485
0 0.5 -83.5242 -0.750021 0.431328 0.501423 0.1059 0.6894
0 0 -83.5242 -0.707107 -0.707107 0 0.1741 0.7367
17.4718 0 -100 0 -0.707107 -0.707107 0.2703 0.8641
16.4758 0.5 -100 0.246317 0.602558 -0.759112 0.1021 0.1779
16.0654 0.5 -95.4617 0.57181 0.813124 0.108916 0.1307 0.1712
17.4718 0.5 -100 -0.086559 0.696217 -0.712593 0.103 0.1843
14.2212 0.5 -90.915 0.522542 0.812033 0.259907 0.1581 0.1553
12.0962 0.5 -87.9039 0.433781 0.813933 0.386455 0.1754 0.1391
9.08506 0.5 -85.7789 0.299097 0.811978 0.501232 0.1863 0.1179
4.53828 0.5 -83.9347 0.164969 0.813148 0.55819 0.194 0.0872
0 0.5 -83.5242 -0.750021 0.431328 0.501423 0.1925 0.0579
0 0.5 -82.5283 -0.710483 0.702361 -0.0436144 0.1083 0.692
0 0 -82.5283 -0.707107 -0.707107 0 0.1705 0.7362
21.4907 0 -100 0 -0.707107 -0.707107 0.2604 0.8535
17.4718 0.5 -100 -0.086559 0.696217 -0.712593 0.1076 0.1883
17.0372 0.5 -95.2261 -0.0885775 0.995725 -0.0262022 0.1375 0.1811
21.4907 1.25 -100 -0.0434058 0.702323 -0.710534 0.1117 0.2143
15.0988 0.5 -90.4356 -0.0795908 0.995679 -0.0478375 0.1662 0.1643
12.8033 0.5 -87.1967 -0.0615778 0.995725 -0.0688404 0.1848 0.1466
9.56442 0.5 -84.9011 -0.0413627 0.995684 -0.0830828 0.1966 0.1239
4.77383 0.5 -82.9628 -0.0173348 0.995712 -0.0908708 0.2048 0.0917
0 0.5 -82.5283 -0.710483 0.702361 -0.0436144 0.2035 0.061
0 1.25 -78.5447 -0.712479 0.696281 -0.0869824 0.1161 0.7045
0 0 -78.5447 -0.707107 -0.707107 0 0.1561 0.7345
21.9926 0 -100 0 -0.707107 -0.707107 0.2591 0.8521
21.4907 1.25 -100 -0.0434058 0.702323 -0.710534 0.122 0.2195
20.9248 1.25 -94.2847 -0.0905783 0.995735 -0.0175161 0.158 0.2108
21.9926 1.25 -100 0 0.707107 -0.707107 0.1225 0.2228
18.6081 1.25 -88.5158 -0.0830829 0.995684 -0.0413625 0.1928 0.1908
15.6317 1.25 -84.3683 -0.0688404 0.995725 -0.061578 0.2166 0.1681
11.484 1.25 -81.3919 -0.0478375 0.995679 -0.0795908 0.2319 0.1389
5.71544 1.25 -79.0753 -0.0261118 0.995714 -0.0887238 0.2415 0.1
0 1.25 -78.5447 -0.712479 0.696281 -0.0869824 0.2397 0.063
0 1.25 -78 -0.707107 0.707107 0 0.1175 0.706
0 0 -78 -0.707107 -0.707107 0 0.1541 0.7342
22.9883 0 -100 0 -0.707107 -0.707107 0.2567 0.8495
22.9883 1.25 -100 0 0.707107 -0.707107 0.1233 0.2291
0 1.25 -77.0042 -0.707107 0.707107 0 0.1199 0.7086
0 0 -77.0042 -0.707107 -0.707107 0 0.1505 0.7338
22.3828 0 -93.9322 0 -1 0 0.2575 0.7784
22.9883 0 -100 0 -0.707107 -0.707107 0.2792 0.7833
49.5078 0 -100 0 -0.707107 -0.707107 0.1908 0.7791
49.5078 1.25 -100 0 0.707107 -0.707107 0.1472 0.3985
0 1.25 -50.4942 -0.707107 0.707107 0 0.1851 0.7796
0 0 -77.0042 -0.707107 -0.707107 0 0.2063 0.6903
6.06792 0 -77.6172 0 -1 0 0.2058 0.7124
0 0 -50.4942 -0.707107 -0.707107 0 0.1106 0.6786
12.2062 0 -80.0772 0 -1 0 0.212 0.7356
16.6924 0 -83.3075 0 -1 0 0.2217 0.7532
19.9228 0 -87.7939 0 -1 0 0.2364 0.7668
50.5089 0 -100 0 -0.707107 -0.707107 0.1884 0.7765
50.5089 1.25 -100 0 0.707107 -0.707107 0.148 0.4049
0 1.25 -49.4989 -0.707107 0.707107 0 0.1875 0.7822
0 0 -49.4989 -0.707107 -0.707107 0 0.107 0.6781
49.1139 0 -87.4742 0 -1 0 0.276 0.83
50.5089 0 -100 0 -0.707107 -0.707107 0.3207 0.8406
76.9953 0 -100 0 -0.707107 -0.707107 0.1226 0.7062
76.9953 1.25 -100 0 0.707107 -0.707107 0.1718 0.574
0 1.25 -23.0214 -0.707107 0.707107 0 0.2526 0.8531
0 0 -49.4989 -0.707107 -0.707107 0 0.1606 0.6363
12.5256 0 -50.8861 0 -1 0 0.1601 0.682
0 0 -23.0214 -0.707107 -0.707107 0 0.065 0.6246
25.4563 0 -55.9797 0 -1 0 0.1728 0.7309
36.1378 0 -63.8622 0 -1 0 0.1965 0.7728
44.0203 0 -74.5439 0 -1 0 0.2316 0.8059
74.8347 0 -81.0956 0 -1 0 0.267 0.9001
76.9953 0 -100 0 -0.707107 -0.707107 0.3343 0.9163
77.9903 0 -100 0 -0.707107 -0.707107 0.1202 0.7035
77.9903 1.25 -100 0 0.707107 -0.707107 0.1727 0.5804
0 1.25 -21.997 -0.707107 0.707107 0 0.2551 0.8558
0 0 -23.0214 -0.707107 -0.707107 0 0.0904 0.6049
18.8961 0 -25.1633 0 -1 0 0.0897 0.6739
0 0 -21.997 -0.707107 -0.707107 0 0.0867 0.6044
38.2886 0 -32.7942 0 -1 0 0.1087 0.7471
54.8761 0 -45.1239 0 -1 0 0.1459 0.8123
67.2061 0 -61.7117 0 -1 0 0.2003 0.8641
78.4869 0 -100 0 -0.707107 -0.707107 0.1189 0.7022
78.4869 1.25 -100 0.0872693 0.705349 -0.703468 0.1732 0.5836
0 1.25 -21.5003 -0.705974 0.706891 0.0436484 0.2564 0.8572
0 0 -21.5003 -0.707107 -0.707107 0 0.0849 0.6042
82.5297 0 -100 0 -0.707107 -0.707107 0.1089 0.6915
78.4869 1.25 -100 0.0872693 0.705349 -0.703468 0.1894 0.5946
76.29 1.25 -80.7328 0.0886092 0.995718 0.0263291 0.3096 0.5625
82.5297 0.5 -100 0.0434788 0.706907 -0.705969 0.1934 0.6207
68.5175 1.25 -60.9831 0.0789261 0.995697 0.0485672 0.428 0.4946
55.9369 1.25 -44.0633 0.062163 0.995708 0.0685648 0.5245 0.3989
39.0172 1.25 -31.4828 0.0413714 0.9957 0.0828868 0.5898 0.2796
19.2587 1.25 -23.7078 0.0184895 0.995715 0.0906114 0.6223 0.1469
0 1.25 -21.5003 -0.705974 0.706891 0.0436484 0.6199 0.0226
0 0.5 -17.4894 -0.703468 0.705306 0.0876107 0.2682 0.866
0 0 -17.4894 -0.707107 -0.707107 0 0.0704 0.6024
83.5231 0 -100 0 -0.707107 -0.707107 0.1064 0.6888
82.5297 0.5 -100 0.0434788 0.706907 -0.705969 0.2045 0.6299
80.1714 0.5 -79.7653 0.0903709 0.995737 0.0184768 0.3316 0.5967
83.5231 0.5 -100 -0.463518 0.39953 -0.790903 0.2054 0.6362
72.0139 0.5 -59.0406 0.0828867 0.9957 0.0413746 0.4566 0.526
58.7653 0.5 -41.2347 0.0685648 0.995708 0.0621628 0.5585 0.4254
40.9597 0.5 -27.9861 0.0485658 0.995697 0.0789262 0.6271 0.2998
20.227 0.5 -19.8267 0.0263331 0.995708 0.0887293 0.6606 0.16
0 0.5 -17.4894 -0.703468 0.705306 0.0876107 0.6574 0.0288
0 0.5 -16.496 -0.779503 0.58001 -0.236567 0.2707 0.8687
0 0 -16.496 -0.707107 -0.707107 0 0.0668 0.602
84.0197 0 -100 0 -0.707107 -0.707107 0.1052 0.6875
83.5231 0.5 -100 -0.463518 0.39953 -0.790903 0.2224 0.6639
81.1414 0.5 -79.5222 -0.558828 0.812496 -0.166019 0.34 0.6113
84.0197 2 -100 -0.236502 0.579907 -0.779599 0.2262 0.6734
72.8881 0.5 -58.5544 -0.496345 0.812587 -0.305522 0.4672 0.5409
59.4725 0.5 -40.5278 -0.391125 0.813008 -0.431323 0.5837 0.4625
59.4725 0.5 -40.5278 -0.391125 0.813008 -0.431323 0.5998 0.4394
41.4456 0.5 -27.1121 -0.260303 0.812619 -0.521434 0.6442 0.3062
59.8261 2 -40.1742 -0.431325 0.813008 -0.391122 0.6094 0.443
20.4695 0.5 -18.8566 -0.116551 0.812447 -0.571267 0.6781 0.1648
0 0.5 -16.496 -0.779503 0.58001 -0.236567 0.6974 0.0374
0 2 -15.9993 -0.790713 0.399673 -0.463717 0.2679 0.8737
0 0 -15.9993 -0.707107 -0.707107 0 0.065 0.6018
85.0131 0 -100 0 -0.707107 -0.707107 0.1027 0.6849
84.0197 2 -100 -0.236502 0.579907 -0.779599 0.2662 0.6765
81.6264 2 -79.4008 -0.571216 0.812428 -0.116934 0.3956 0.6427
85.0131 2 -100 0.427541 0.541603 -0.723792 0.2671 0.6828
73.325 2 -58.3117 -0.521424 0.81262 -0.260318 0.5228 0.5708
59.8261 2 -40.1742 -0.431325 0.813008 -0.391122 0.6265 0.4683
41.6886 2 -26.6751 -0.305514 0.812588 -0.496349 0.6965 0.3403
20.5908 2 -18.3715 -0.165817 0.812511 -0.558866 0.7306 0.1981
0 2 -15.9993 -0.790713 0.399673 -0.463717 0.7272 0.0645
0 2 -15.0058 -0.734709 0.645133 0.209775 0.2703 0.8764
0 0 -15.0058 -0.707107 -0.707107 0 0.0614 0.6013
85.5097 0 -100 0 -0.707107 -0.707107 0.1015 0.6836
85.0131 2 -100 0.427541 0.541603 -0.723792 0.2773 0.7047
82.5964 2 -79.1578 0.451522 0.882129 0.134078 0.4011 0.6584
85.5097 1.25 -100 0.209789 0.645226 -0.734624 0.279 0.7102
74.1989 2 -57.8258 0.400985 0.882192 0.246879 0.5305 0.5869
60.5331 2 -39.4669 0.315982 0.882469 0.348431 0.6448 0.499
60.5331 2 -39.4669 0.315982 0.882469 0.348431 0.6571 0.4804
42.1744 2 -25.8011 0.210316 0.88223 0.421233 0.7113 0.3469
60.8867 1.25 -39.1136 0.348431 0.882469 0.315982 0.6624 0.483
20.8332 2 -17.4013 0.09407 0.882061 0.461648 0.7458 0.203
0 2 -15.0058 -0.734709 0.645133 0.209775 0.7572 0.0714
0 1.25 -14.5091 -0.723969 0.541446 0.427441 0.2735 0.8759
0 0 -14.5091 -0.707107 -0.707107 0 0.0596 0.6011
89.4831 0 -100 0 -0.707107 -0.707107 0.0916 0.673
85.5097 1.25 -100 0.209789 0.645226 -0.734624 0.3114 0.7171
83.0814 1.25 -79.0364 0.461614 0.882046 0.0943752 0.4432 0.6827
89.4831 1.25 -100 -0.398266 0.504487 -0.766079 0.315 0.7424
74.6358 1.25 -57.5828 0.421223 0.882231 0.210331 0.5726 0.6095
60.8867 1.25 -39.1136 0.348431 0.882469 0.315982 0.6782 0.5051
42.4175 1.25 -25.3641 0.246873 0.882191 0.400989 0.7494 0.3749
20.9543 1.25 -16.9162 0.133916 0.88214 0.451548 0.7841 0.2302
0 1.25 -14.5091 -0.723969 0.541446 0.427441 0.7807 0.0942
0 1.25 -10.5041 -0.755612 0.623067 -0.202085 0.2834 0.8866
0 0 -10.5041 -0.707107 -0.707107 0 0.0452 0.5993
86.9619 0 -78.0656 0 -1 0 0.2719 0.9258
89.4831 0 -100 0 -0.707107 -0.707107 0.35 0.9446
89.9797 0 -100 0 -0.707107 -0.707107 0.0904 0.6717
89.4831 1.25 -100 -0.398266 0.504487 -0.766079 0.3291 0.7668
86.9619 1.25 -78.0656 -0.451538 0.882141 -0.133945 0.4603 0.7205
89.9797 2 -100 -0.202497 0.622754 -0.75576 0.3307 0.7724
78.1319 1.25 -55.6386 -0.400918 0.882196 -0.246974 0.5976 0.6477
63.715 1.25 -36.285 -0.316029 0.882464 -0.348401 0.7196 0.5571
63.715 1.25 -36.285 -0.316029 0.882464 -0.348401 0.7308 0.5294
44.3611 1.25 -21.8682 -0.210376 0.882232 -0.4212 0.7892 0.3891
64.0686 2 -35.9317 -0.348401 0.882464 -0.316029 0.736 0.5321
21.9233 1.25 -13.0354 -0.094162 0.882446 -0.460894 0.8267 0.2382
0 1.25 -10.5041 -0.755612 0.623067 -0.202085 0.8399 0.0998
0 2 -10.0019 -0.765974 0.505303 -0.397434 0.2826 0.8898
0 0 -10.5041 -0.707107 -0.707107 0 0.0665 0.5827
21.9233 0 -13.0354 0 -1 0 0.0659 0.6628
0 0 -10.0019 -0.707107 -0.707107 0 0.0647 0.5825
44.3611 0 -21.8682 0 -1 0 0.0879 0.7475
63.715 0 -36.285 0 -1 0 0.1313 0.8236
78.1319 0 -55.6386 0 -1 0 0.1949 0.8841
100 0 -100 0.6799 -0.684496 -0.263061 0.3454 0.9825
97.1492 0 -75.5217 0.675242 -0.709748 0.200765 0.2582 0.9614
100 2 -100 0.422112 0.424965 -0.800766 0.0602 0.65
100 0 -100 0.6799 -0.684496 -0.263061 0.0655 0.6451
89.9797 2 -100 -0.202497 0.622754 -0.75576 0.3683 0.7854
87.447 2 -77.9444 -0.461643 0.882063 -0.0940762 0.5069 0.7494
97.1492 2 -75.5217 0.690113 0.709747 0.141436 0.5311 0.8092
100 2 -100 0.422112 0.424965 -0.800766 0.3773 0.8494
78.5689 2 -55.3956 -0.421189 0.882233 -0.210393 0.6429 0.6725
87.3075 2 -50.5342 0.629999 0.70988 0.314915 0.6818 0.7239
64.0686 2 -35.9317 -0.348401 0.882464 -0.316029 0.7542 0.5624
71.1397 2 -28.8606 0.521194 0.710386 0.472978 0.8057 0.6012
44.6042 2 -21.4312 -0.246965 0.882196 -0.400922 0.8294 0.4251
49.4656 2 -12.6924 0.369678 0.709881 0.599506 0.8895 0.4483
22.0442 2 -12.5502 -0.133965 0.882326 -0.45117 0.8658 0.273
24.4703 2 -2.84897 0.200737 0.709747 0.675251 0.93 0.2798
0 2 -10.0019 -0.765974 0.505303 -0.397434 0.8623 0.13
0 2 0 -0.263088 0.684489 0.679896 0.9262 0.121
0 0 0 -0.800773 -0.424957 0.422106 0.3126 0.9116
0 2 0 -0.263088 0.684489 0.679896 0.3072 0.9165
24.4703 0 -2.84897 0.141407 -0.709747 0.690118 0.028 0.6675
0 0 0 -0.800773 -0.424957 0.422106 0.0285 0.5781
49.4656 0 -12.6924 0.314896 -0.709881 0.630008 0.0524 0.7619
71.1397 0 -28.8606 0.472978 -0.710386 0.521194 0.1012 0.8471
87.3075 0 -50.5342 0.599502 -0.709881 0.369685 0.1723 0.9149
3 0 1 2 
3 0 2 3 
3 4 5 6 
3 4 6 7 
3 8 9 10 
3 8 10 11 
3 12 13 14 
3 12 14 15 
3 16 17 18 
3 16 18 19 
3 20 21 22 
3 20 22 23 
3 340 3 2 
3 340 2 341 
3 24 1 0 
3 24 0 25 
3 342 4 7 
3 342 7 343 
3 6 5 26 
3 6 26 27 
3 28 29 13 
3 28 13 12 
3 30 31 15 
3 30 15 14 
3 32 33 21 
3 32 21 20 
3 34 35 23 
3 34 23 22 
3 36 37 0 
3 36 0 3 
3 344 345 2 
3 344 2 1 
3 346 5 4 
3 346 4 347 
3 38 39 7 
3 38 7 6 
3 348 349 9 
3 348 9 8 
3 40 41 11 
3 40 11 10 
3 350 351 17 
3 350 17 16 
3 42 43 19 
3 42 19 18 
3 352 36 3 
3 352 3 340 
3 345 353 341 
3 345 341 2 
3 354 344 1 
3 354 1 24 
3 44 25 0 
3 44 0 37 
3 355 347 4 
3 355 4 342 
3 39 356 343 
3 39 343 7 
3 6 27 45 
3 6 45 38 
3 346 357 26 
3 346 26 5 
3 358 359 46 
3 358 46 47 
3 43 42 48 
3 43 48 360 
3 361 362 49 
3 361 49 363 
3 362 364 50 
3 362 50 49 
3 364 365 51 
3 364 51 50 
3 366 367 52 
3 366 52 368 
3 367 369 53 
3 367 53 52 
3 369 370 54 
3 369 54 53 
3 33 32 55 
3 33 55 371 
3 372 373 56 
3 372 56 374 
3 373 375 57 
3 373 57 56 
3 375 376 58 
3 375 58 57 
3 376 377 59 
3 376 59 58 
3 377 358 47 
3 377 47 59 
3 47 46 60 
3 47 60 61 
3 360 48 62 
3 360 62 378 
3 379 380 63 
3 379 63 381 
3 380 382 64 
3 380 64 63 
3 382 383 65 
3 382 65 64 
3 383 384 66 
3 383 66 65 
3 384 385 67 
3 384 67 66 
3 385 386 68 
3 385 68 67 
3 371 55 69 
3 371 69 387 
3 374 56 70 
3 374 70 388 
3 56 57 71 
3 56 71 70 
3 57 58 72 
3 57 72 71 
3 58 59 73 
3 58 73 72 
3 59 47 61 
3 59 61 73 
3 389 390 74 
3 389 74 75 
3 378 62 76 
3 378 76 391 
3 392 393 77 
3 392 77 394 
3 393 395 78 
3 393 78 77 
3 395 396 79 
3 395 79 78 
3 397 398 80 
3 397 80 399 
3 398 400 81 
3 398 81 80 
3 400 401 82 
3 400 82 81 
3 387 69 83 
3 387 83 402 
3 403 404 84 
3 403 84 405 
3 404 406 85 
3 404 85 84 
3 406 407 86 
3 406 86 85 
3 407 408 87 
3 407 87 86 
3 408 389 75 
3 408 75 87 
3 75 74 88 
3 75 88 89 
3 391 76 90 
3 391 90 409 
3 410 411 91 
3 410 91 412 
3 411 413 92 
3 411 92 91 
3 413 414 93 
3 413 93 92 
3 414 415 94 
3 414 94 93 
3 415 416 95 
3 415 95 94 
3 416 417 96 
3 416 96 95 
3 402 83 97 
3 402 97 418 
3 405 84 98 
3 405 98 419 
3 84 85 99 
3 84 99 98 
3 85 86 100 
3 85 100 99 
3 86 87 101 
3 86 101 100 
3 87 75 89 
3 87 89 101 
3 89 88 102 
3 89 102 103 
3 409 90 104 
3 409 104 420 
3 421 422 105 
3 421 105 423 
3 422 424 106 
3 422 106 105 
3 424 425 107 
3 424 107 106 
3 426 427 108 
3 426 108 428 
3 427 429 109 
3 427 109 108 
3 429 430 110 
3 429 110 109 
3 418 97 111 
3 418 111 431 
3 419 98 112 
3 419 112 432 
3 98 99 113 
3 98 113 112 
3 99 100 114 
3 99 114 113 
3 100 101 115 
3 100 115 114 
3 101 89 103 
3 101 103 115 
3 103 102 116 
3 103 116 117 
3 420 104 118 
3 420 118 433 
3 434 435 119 
3 434 119 436 
3 435 437 120 
3 435 120 119 
3 437 438 121 
3 437 121 120 
3 438 439 122 
3 438 122 121 
3 439 440 123 
3 439 123 122 
3 440 441 124 
3 440 124 123 
3 431 111 125 
3 431 125 442 
3 432 112 126 
3 432 126 443 
3 112 113 127 
3 112 127 126 
3 113 114 128 
3 113 128 127 
3 114 115 129 
3 114 129 128 
3 115 103 117 
3 115 117 129 
3 117 116 130 
3 117 130 131 
3 433 118 132 
3 433 132 444 
3 445 446 133 
3 445 133 447 
3 446 448 134 
3 446 134 133 
3 448 449 135 
3 448 135 134 
3 449 450 136 
3 449 136 135 
3 450 451 137 
3 450 137 136 
3 451 452 138 
3 451 138 137 
3 442 125 139 
3 442 139 453 
3 443 126 140 
3 443 140 454 
3 126 127 141 
3 126 141 140 
3 127 128 142 
3 127 142 141 
3 128 129 143 
3 128 143 142 
3 129 117 131 
3 129 131 143 
3 131 130 144 
3 131 144 145 
3 444 132 146 
3 444 146 455 
3 456 457 147 
3 456 147 458 
3 457 459 148 
3 457 148 147 
3 459 460 149 
3 459 149 148 
3 460 461 150 
3 460 150 149 
3 461 462 151 
3 461 151 150 
3 462 463 152 
3 462 152 151 
3 453 139 153 
3 453 153 464 
3 454 140 154 
3 454 154 465 
3 140 141 155 
3 140 155 154 
3 141 142 156 
3 141 156 155 
3 142 143 157 
3 142 157 156 
3 143 131 145 
3 143 145 157 
3 145 144 158 
3 145 158 159 
3 455 146 160 
3 455 160 466 
3 458 147 161 
3 458 161 467 
3 147 148 162 
3 147 162 161 
3 148 149 163 
3 148 163 162 
3 149 150 164 
3 149 164 163 
3 150 151 165 
3 150 165 164 
3 151 152 166 
3 151 166 165 
3 464 153 167 
3 464 167 468 
3 465 154 168 
3 465 168 469 
3 154 155 169 
3 154 169 168 
3 155 156 170 
3 155 170 169 
3 156 157 171 
3 156 171 170 
3 157 145 159 
3 157 159 171 
3 470 471 172 
3 470 172 173 
3 466 160 174 
3 466 174 472 
3 467 161 175 
3 467 175 473 
3 161 162 176 
3 161 176 175 
3 162 163 177 
3 162 177 176 
3 163 164 178 
3 163 178 177 
3 164 165 179 
3 164 179 178 
3 165 166 180 
3 165 180 179 
3 468 167 181 
3 468 181 474 
3 475 476 182 
3 475 182 477 
3 476 478 183 
3 476 183 182 
3 478 479 184 
3 478 184 183 
3 479 480 185 
3 479 185 184 
3 480 470 173 
3 480 173 185 
3 173 172 186 
3 173 186 187 
3 472 174 188 
3 472 188 481 
3 473 175 189 
3 473 189 482 
3 175 176 190 
3 175 190 189 
3 176 177 191 
3 176 191 190 
3 177 178 192 
3 177 192 191 
3 178 179 193 
3 178 193 192 
3 179 180 194 
3 179 194 193 
3 474 181 195 
3 474 195 483 
3 477 182 196 
3 477 196 484 
3 182 183 197 
3 182 197 196 
3 183 184 198 
3 183 198 197 
3 184 185 199 
3 184 199 198 
3 185 173 187 
3 185 187 199 
3 485 486 200 
3 485 200 201 
3 481 188 202 
3 481 202 487 
3 482 189 203 
3 482 203 488 
3 189 190 204 
3 189 204 203 
3 190 191 205 
3 190 205 204 
3 191 192 206 
3 191 206 205 
3 192 193 207 
3 192 207 206 
3 193 194 208 
3 193 208 207 
3 483 195 209 
3 483 209 489 
3 490 491 210 
3 490 210 492 
3 491 493 211 
3 491 211 210 
3 493 494 212 
3 493 212 211 
3 494 495 213 
3 494 213 212 
3 495 485 201 
3 495 201 213 
3 496 497 214 
3 496 214 215 
3 487 202 216 
3 487 216 498 
3 488 203 217 
3 488 217 499 
3 203 204 218 
3 203 218 217 
3 204 205 219 
3 204 219 218 
3 205 206 220 
3 205 220 219 
3 206 207 221 
3 206 221 220 
3 207 208 222 
3 207 222 221 
3 489 209 223 
3 489 223 500 
3 501 502 224 
3 501 224 503 
3 502 504 225 
3 502 225 224 
3 504 505 226 
3 504 226 225 
3 505 506 227 
3 505 227 226 
3 506 496 215 
3 506 215 227 
3 215 214 228 
3 215 228 229 
3 498 216 230 
3 498 230 507 
3 499 217 231 
3 499 231 508 
3 217 218 232 
3 217 232 231 
3 218 219 233 
3 218 233 232 
3 219 220 234 
3 219 234 233 
3 220 221 235 
3 220 235 234 
3 221 222 236 
3 221 236 235 
3 500 223 237 
3 500 237 509 
3 503 224 238 
3 503 238 510 
3 224 225 239 
3 224 239 238 
3 225 226 240 
3 225 240 239 
3 226 227 241 
3 226 241 240 
3 227 215 229 
3 227 229 241 
3 229 228 242 
3 229 242 243 
3 507 230 244 
3 507 244 511 
3 512 513 245 
3 512 245 514 
3 513 515 246 
3 513 246 245 
3 515 516 247 
3 515 247 246 
3 516 517 248 
3 516 248 247 
3 517 518 249 
3 517 249 248 
3 518 519 250 
3 518 250 249 
3 509 237 251 
3 509 251 520 
3 510 238 252 
3 510 252 521 
3 238 239 253 
3 238 253 252 
3 239 240 254 
3 239 254 253 
3 240 241 255 
3 240 255 254 
3 241 229 243 
3 241 243 255 
3 243 242 256 
3 243 256 257 
3 511 244 258 
3 511 258 522 
3 523 524 259 
3 523 259 525 
3 524 526 260 
3 524 260 259 
3 526 527 261 
3 526 261 260 
3 527 528 262 
3 527 262 261 
3 528 529 263 
3 528 263 262 
3 529 530 264 
3 529 264 263 
3 520 251 265 
3 520 265 531 
3 521 252 266 
3 521 266 532 
3 252 253 267 
3 252 267 266 
3 253 254 268 
3 253 268 267 
3 254 255 269 
3 254 269 268 
3 255 243 257 
3 255 257 269 
3 257 256 270 
3 257 270 271 
3 522 258 272 
3 522 272 533 
3 534 535 273 
3 534 273 536 
3 535 537 274 
3 535 274 273 
3 537 538 275 
3 537 275 274 
3 539 540 276 
3 539 276 541 
3 540 542 277 
3 540 277 276 
3 542 543 278 
3 542 278 277 
3 531 265 279 
3 531 279 544 
3 532 266 280 
3 532 280 545 
3 266 267 281 
3 266 281 280 
3 267 268 282 
3 267 282 281 
3 268 269 283 
3 268 283 282 
3 269 257 271 
3 269 271 283 
3 271 270 284 
3 271 284 285 
3 533 272 286 
3 533 286 546 
3 547 548 287 
3 547 287 549 
3 548 550 288 
3 548 288 287 
3 550 551 289 
3 550 289 288 
3 551 552 290 
3 551 290 289 
3 552 553 291 
3 552 291 290 
3 553 554 292 
3 553 292 291 
3 544 279 293 
3 544 293 555 
3 545 280 294 
3 545 294 556 
3 280 281 295 
3 280 295 294 
3 281 282 296 
3 281 296 295 
3 282 283 297 
3 282 297 296 
3 283 271 285 
3 283 285 297 
3 285 284 298 
3 285 298 299 
3 546 286 300 
3 546 300 557 
3 558 559 301 
3 558 301 560 
3 559 561 302 
3 559 302 301 
3 561 562 303 
3 561 303 302 
3 563 564 304 
3 563 304 565 
3 564 566 305 
3 564 305 304 
3 566 567 306 
3 566 306 305 
3 555 293 307 
3 555 307 568 
3 556 294 308 
3 556 308 569 
3 294 295 309 
3 294 309 308 
3 295 296 310 
3 295 310 309 
3 296 297 311 
3 296 311 310 
3 297 285 299 
3 297 299 311 
3 299 298 312 
3 299 312 313 
3 557 300 314 
3 557 314 570 
3 571 572 315 
3 571 315 573 
3 572 574 316 
3 572 316 315 
3 574 575 317 
3 574 317 316 
3 575 576 318 
3 575 318 317 
3 576 577 319 
3 576 319 318 
3 577 578 320 
3 577 320 319 
3 568 307 321 
3 568 321 579 
3 569 308 322 
3 569 322 580 
3 308 309 323 
3 308 323 322 
3 309 310 324 
3 309 324 323 
3 310 311 325 
3 310 325 324 
3 311 299 313 
3 311 313 325 
3 581 582 326 
3 581 326 327 
3 570 314 328 
3 570 328 583 
3 584 585 329 
3 584 329 586 
3 585 587 330 
3 585 330 329 
3 587 588 331 
3 587 331 330 
3 589 590 332 
3 589 332 591 
3 590 592 333 
3 590 333 332 
3 592 593 334 
3 592 334 333 
3 579 321 335 
3 579 335 594 
3 595 596 336 
3 595 336 597 
3 596 598 337 
3 596 337 336 
3 598 599 338 
3 598 338 337 
3 599 600 339 
3 599 339 338 
3 600 581 327 
3 600 327 339 
3 327 326 601 
3 327 601 602 
3 583 328 603 
3 583 603 604 
3 605 606 607 
3 605 607 608 
3 606 609 610 
3 606 610 607 
3 609 611 612 
3 609 612 610 
3 611 613 614 
3 611 614 612 
3 613 615 616 
3 613 616 614 
3 615 617 618 
3 615 618 616 
3 594 335 619 
3 594 619 620 
3 597 336 621 
3 597 621 622 
3 336 337 623 
3 336 623 621 
3 337 338 624 
3 337 624 623 
3 338 339 625 
3 338 625 624 
3 339 327 602 
3 339 602 625 
