ply
format ascii 1.0
comment VCGLIB generated
element vertex 242
property float x
property float y
property float z
property float nx
property float ny
property float nz
property float texture_u
property float texture_v
element face 188
property list uchar int vertex_indices
end_header
0 0 0 -0.333333 -0.666667 0.666667 0.8974 0.024
0 0 -10 -0.894427 -0.447214 0 0.9455 0.024
100 0 -10 0.447214 -0.894427 0 0.9455 0.8464
100 0 0 0.816497 -0.408248 0.408248 0.8974 0.8464
0 2 0 -0.666667 0.666667 0.333333 0.0159 0.0465
100 2 0 0.408248 0.408248 0.816497 0.8356 0.0465
100 2 -10 0.830119 0.530176 -0.172675 0.8356 0.1285
0 2 -10 -0.597113 0.629776 -0.496828 0.0159 0.1285
100 0 -100 0.666667 -0.333333 -0.666667 0.8356 0.9774
0 0 -100 -0.408248 -0.816497 -0.408248 0.0159 0.9774
0 2 -100 -0.666667 0.333333 -0.666667 0.0159 0.9611
100 2 -100 0.408248 0.816497 -0.408248 0.8356 0.961
0 0 -10.5 -0.707107 -0.707107 0 0.8926 0.024
100 0 -10.5 0.707107 -0.707107 0 0.8926 0.8464
0 1.25 -10.5 -0.744924 0.634352 -0.206605 0.9203 0.7601
100 1.25 -10.5 0.744924 0.523781 -0.413209 0.8356 0.14
0 0 -14.5 -0.707107 -0.707107 0 0.9118 0.024
100 0 -14.5 0.707107 -0.707107 0 0.9118 0.8464
0 1.25 -14.5 -0.744924 0.523781 0.413209 0.9203 0.7272
100 1.25 -14.5 0.744924 0.634352 0.206605 0.8356 0.1764
0 0 -15 -0.707107 -0.707107 0 0.9142 0.024
100 0 -15 0.707107 -0.707107 0 0.9142 0.8464
0 2 -15 -0.744924 0.634352 0.206605 0.9166 0.723
100 2 -15 0.744924 0.523781 0.413209 0.8356 0.1878
0 0 -16 -0.707107 -0.707107 0 0.9191 0.024
100 0 -16 0.707107 -0.707107 0 0.9191 0.8464
0 2 -16 -0.767845 0.417826 -0.485629 0.9166 0.7148
100 2 -16 0.767846 0.592836 -0.242814 0.8356 0.2004
0 0 -16.5 -0.707107 -0.707107 0 0.9215 0.024
100 0 -16.5 0.707107 -0.707107 0 0.9215 0.8464
0 0.5 -16.5 -0.767846 0.592836 -0.242814 0.9239 0.7107
100 0.5 -16.5 0.767845 0.417826 -0.485629 0.8356 0.2174
0 0 -17.5 -0.707107 -0.707107 0 0.9263 0.024
100 0 -17.5 0.707107 -0.707107 0 0.9263 0.8464
0 0.5 -17.5 -0.708457 0.700366 0.0870403 0.9239 0.7025
100 0.5 -17.5 0.708457 0.704411 0.0435202 0.8356 0.2294
0 0 -21.5 -0.707107 -0.707107 0 0.9455 0.024
100 0 -21.5 0.707107 -0.707107 0 0.9455 0.8464
0 1.25 -21.5 -0.708457 0.704411 0.0435202 0.9203 0.6696
100 1.25 -21.5 0.708457 0.700366 0.0870403 0.8356 0.267
0 0 -22 -0.707107 -0.707107 0 0.9479 0.024
100 0 -22 0.707107 -0.707107 0 0.9479 0.8464
0 1.25 -22 -0.707107 0.707107 0 0.9203 0.6655
100 1.25 -22 0.707107 0.707107 0 0.8356 0.2752
0 0 -23 -0.707107 -0.707107 0 0.9528 0.024
100 0 -23 0.707107 -0.707107 0 0.9528 0.8464
0 1.25 -23 -0.707107 0.707107 0 0.9203 0.6572
100 1.25 -23 0.707107 0.707107 0 0.8356 0.2834
0 0 -50.5 -0.707107 -0.707107 0 0.9877 0.024
100 0 -50.5 0.707107 -0.707107 0 0.9877 0.8464
100 0 -49.5 0.707107 -0.707107 0 0.9829 0.8464
0 0 -49.5 -0.707107 -0.707107 0 0.9829 0.024
0 1.25 -50.5 -0.707107 0.707107 0 0.9203 0.4311
0 1.25 -49.5 -0.707107 0.707107 0 0.9203 0.4393
100 1.25 -50.5 0.707107 0.707107 0 0.8356 0.5088
100 1.25 -49.5 0.707107 0.707107 0 0.8356 0.5006
100 0 -77 0.707107 -0.707107 0 0.8902 0.8464
0 0 -77 -0.707107 -0.707107 0 0.8902 0.024
0 0 -78 -0.707107 -0.707107 0 0.895 0.024
100 0 -78 0.707107 -0.707107 0 0.895 0.8464
0 1.25 -77 -0.707107 0.707107 0 0.9203 0.2131
0 1.25 -78 -0.707107 0.707107 0 0.9203 0.2049
100 1.25 -77 0.707107 0.707107 0 0.8356 0.726
100 1.25 -78 0.707107 0.707107 0 0.8356 0.7342
0 0 -78.5 -0.707107 -0.707107 0 0.8974 0.024
100 0 -78.5 0.707107 -0.707107 0 0.8974 0.8464
0 1.25 -78.5 -0.708457 0.700366 -0.0870403 0.9203 0.2008
100 1.25 -78.5 0.708457 0.704411 -0.0435202 0.8356 0.7383
0 0 -82.5 -0.707107 -0.707107 0 0.9167 0.024
100 0 -82.5 0.707107 -0.707107 0 0.9166 0.8464
0 0.5 -82.5 -0.708457 0.704411 -0.0435202 0.9239 0.1679
100 0.5 -82.5 0.708457 0.700366 -0.0870403 0.8356 0.7747
0 0 -83.5 -0.707107 -0.707107 0 0.9215 0.024
100 0 -83.5 0.707107 -0.707107 0 0.9215 0.8464
0 0.5 -83.5 -0.767845 0.417826 0.485629 0.9239 0.1597
100 0.5 -83.5 0.767846 0.592836 0.242814 0.8356 0.7864
0 0 -84 -0.707107 -0.707107 0 0.9239 0.024
100 0 -84 0.707107 -0.707107 0 0.9239 0.8464
0 2 -84 -0.767846 0.592836 0.242814 0.9167 0.1556
100 2 -84 0.767845 0.417826 0.485629 0.8356 0.8028
0 0 -85 -0.707107 -0.707107 0 0.9287 0.024
100 0 -85 0.707107 -0.707107 0 0.9287 0.8464
0 2 -85 -0.744924 0.523781 -0.413209 0.9167 0.1473
100 2 -85 0.744924 0.634352 -0.206605 0.8356 0.8144
0 0 -85.5 -0.707107 -0.707107 0 0.9311 0.024
100 0 -85.5 0.707107 -0.707107 0 0.9311 0.8464
0 1.25 -85.5 -0.744924 0.634352 -0.206605 0.9203 0.1432
100 1.25 -85.5 0.744924 0.523781 -0.413209 0.8356 0.8249
0 0 -89.5 -0.707107 -0.707107 0 0.9504 0.024
100 0 -89.5 0.707107 -0.707107 0 0.9504 0.8464
0 1.25 -89.5 -0.744924 0.523781 0.413209 0.9203 0.1103
100 1.25 -89.5 0.744924 0.634352 0.206605 0.8356 0.8611
0 0 -90 -0.707107 -0.707107 0 0.9528 0.024
100 0 -90 0.707107 -0.707107 0 0.9528 0.8464
0 2 -90 -0.744924 0.634352 0.206605 0.9167 0.1062
100 2 -90 0.744924 0.523781 0.413209 0.8356 0.872
0 0 0 -0.333333 -0.666667 0.666667 0.0159 0.0268
100 0 0 0.816497 -0.408248 0.408248 0.8356 0.0268
100 2 0 0.408248 0.408248 0.816497 0.8356 0.0432
0 2 0 -0.666667 0.666667 0.333333 0.0159 0.0432
100 0 0 0.816497 -0.408248 0.408248 0.9263 0.024
100 0 -10 0.447214 -0.894427 0 0.9263 0.1062
100 2 -10 0.830119 0.530176 -0.172675 0.9167 0.1062
100 2 0 0.408248 0.408248 0.816497 0.9167 0.024
0 0 -10 -0.894427 -0.447214 0 0.9263 0.7642
0 0 0 -0.333333 -0.666667 0.666667 0.9263 0.8464
0 2 0 -0.666667 0.666667 0.333333 0.9166 0.8464
0 2 -10 -0.597113 0.629776 -0.496828 0.9166 0.7642
100 0 -10 0.447214 -0.894427 0 0.8902 0.8464
0 0 -10 -0.894427 -0.447214 0 0.8902 0.024
0 0 -10.5 -0.707107 -0.707107 0 0.9263 0.7601
0 2 -10 -0.597113 0.629776 -0.496828 0.0159 0.1326
100 2 -10 0.830119 0.530176 -0.172675 0.8356 0.1326
0 1.25 -10.5 -0.744924 0.634352 -0.206605 0.0159 0.14
100 0 -10.5 0.707107 -0.707107 0 0.9263 0.1103
100 1.25 -10.5 0.744924 0.523781 -0.413209 0.9203 0.1103
0 0 -14.5 -0.707107 -0.707107 0 0.9263 0.7272
0 1.25 -10.5 -0.744924 0.634352 -0.206605 0.0159 0.1436
100 1.25 -10.5 0.744924 0.523781 -0.413209 0.8356 0.1436
0 1.25 -14.5 -0.744924 0.523781 0.413209 0.0159 0.1764
100 0 -14.5 0.707107 -0.707107 0 0.9263 0.1432
100 1.25 -14.5 0.744924 0.634352 0.206605 0.9203 0.1432
0 0 -15 -0.707107 -0.707107 0 0.9263 0.723
0 1.25 -14.5 -0.744924 0.523781 0.413209 0.0159 0.1804
100 1.25 -14.5 0.744924 0.634352 0.206605 0.8356 0.1804
0 2 -15 -0.744924 0.634352 0.206605 0.0159 0.1878
100 0 -15 0.707107 -0.707107 0 0.9263 0.1473
100 2 -15 0.744924 0.523781 0.413209 0.9167 0.1473
0 0 -16 -0.707107 -0.707107 0 0.9263 0.7148
0 2 -15 -0.744924 0.634352 0.206605 0.0159 0.1922
100 2 -15 0.744924 0.523781 0.413209 0.8356 0.1922
0 2 -16 -0.767845 0.417826 -0.485629 0.0159 0.2004
100 0 -16 0.707107 -0.707107 0 0.9263 0.1556
100 2 -16 0.767846 0.592836 -0.242814 0.9167 0.1556
0 0 -16.5 -0.707107 -0.707107 0 0.9263 0.7107
0 2 -16 -0.767845 0.417826 -0.485629 0.0159 0.2045
100 2 -16 0.767846 0.592836 -0.242814 0.8356 0.2045
0 0.5 -16.5 -0.767846 0.592836 -0.242814 0.0159 0.2174
100 0 -16.5 0.707107 -0.707107 0 0.9263 0.1597
100 0.5 -16.5 0.767845 0.417826 -0.485629 0.9239 0.1597
0 0 -17.5 -0.707107 -0.707107 0 0.9263 0.7025
0 0.5 -16.5 -0.767846 0.592836 -0.242814 0.0159 0.2212
100 0.5 -16.5 0.767845 0.417826 -0.485629 0.8356 0.2212
0 0.5 -17.5 -0.708457 0.700366 0.0870403 0.0159 0.2294
100 0 -17.5 0.707107 -0.707107 0 0.9263 0.1679
100 0.5 -17.5 0.708457 0.704411 0.0435202 0.9239 0.1679
0 0 -21.5 -0.707107 -0.707107 0 0.9263 0.6696
0 0.5 -17.5 -0.708457 0.700366 0.0870403 0.0159 0.2336
100 0.5 -17.5 0.708457 0.704411 0.0435202 0.8356 0.2336
0 1.25 -21.5 -0.708457 0.704411 0.0435202 0.0159 0.267
100 0 -21.5 0.707107 -0.707107 0 0.9263 0.2008
100 1.25 -21.5 0.708457 0.700366 0.0870403 0.9203 0.2008
0 0 -22 -0.707107 -0.707107 0 0.9263 0.6655
0 1.25 -21.5 -0.708457 0.704411 0.0435202 0.0159 0.2711
100 1.25 -21.5 0.708457 0.700366 0.0870403 0.8356 0.2711
0 1.25 -22 -0.707107 0.707107 0 0.0159 0.2752
100 0 -22 0.707107 -0.707107 0 0.9263 0.2049
100 1.25 -22 0.707107 0.707107 0 0.9203 0.2049
0 0 -23 -0.707107 -0.707107 0 0.9263 0.6572
0 1.25 -23 -0.707107 0.707107 0 0.0159 0.2834
100 0 -23 0.707107 -0.707107 0 0.9263 0.2131
100 1.25 -23 0.707107 0.707107 0 0.9203 0.2131
0 0 -50.5 -0.707107 -0.707107 0 0.9263 0.4311
0 0 -49.5 -0.707107 -0.707107 0 0.9263 0.4393
0 1.25 -50.5 -0.707107 0.707107 0 0.0159 0.5088
0 1.25 -49.5 -0.707107 0.707107 0 0.0159 0.5006
100 0 -50.5 0.707107 -0.707107 0 0.9263 0.4393
100 1.25 -50.5 0.707107 0.707107 0 0.9203 0.4393
100 1.25 -49.5 0.707107 0.707107 0 0.9203 0.4311
100 0 -49.5 0.707107 -0.707107 0 0.9263 0.4311
0 0 -77 -0.707107 -0.707107 0 0.9263 0.2131
0 0 -78 -0.707107 -0.707107 0 0.9263 0.2049
0 1.25 -77 -0.707107 0.707107 0 0.0159 0.726
0 1.25 -78 -0.707107 0.707107 0 0.0159 0.7342
100 1.25 -77 0.707107 0.707107 0 0.9203 0.6572
100 0 -77 0.707107 -0.707107 0 0.9263 0.6572
100 0 -78 0.707107 -0.707107 0 0.9263 0.6655
100 1.25 -78 0.707107 0.707107 0 0.9203 0.6655
0 0 -78.5 -0.707107 -0.707107 0 0.9263 0.2008
0 1.25 -78.5 -0.708457 0.700366 -0.0870403 0.0159 0.7383
100 0 -78.5 0.707107 -0.707107 0 0.9263 0.6696
100 1.25 -78.5 0.708457 0.704411 -0.0435202 0.9203 0.6696
0 0 -82.5 -0.707107 -0.707107 0 0.9263 0.1679
0 1.25 -78.5 -0.708457 0.700366 -0.0870403 0.0159 0.7414
100 1.25 -78.5 0.708457 0.704411 -0.0435202 0.8356 0.7414
0 0.5 -82.5 -0.708457 0.704411 -0.0435202 0.0159 0.7748
100 0 -82.5 0.707107 -0.707107 0 0.9263 0.7025
100 0.5 -82.5 0.708457 0.700366 -0.0870403 0.9239 0.7025
0 0 -83.5 -0.707107 -0.707107 0 0.9263 0.1597
0 0.5 -82.5 -0.708457 0.704411 -0.0435202 0.0159 0.7782
100 0.5 -82.5 0.708457 0.700366 -0.0870403 0.8356 0.7782
0 0.5 -83.5 -0.767845 0.417826 0.485629 0.0159 0.7864
100 0 -83.5 0.707107 -0.707107 0 0.9263 0.7107
100 0.5 -83.5 0.767846 0.592836 0.242814 0.9239 0.7107
0 0 -84 -0.707107 -0.707107 0 0.9263 0.1556
0 0.5 -83.5 -0.767845 0.417826 0.485629 0.0159 0.7898
100 0.5 -83.5 0.767846 0.592836 0.242814 0.8356 0.7898
0 2 -84 -0.767846 0.592836 0.242814 0.0159 0.8028
100 0 -84 0.707107 -0.707107 0 0.9263 0.7148
100 2 -84 0.767845 0.417826 0.485629 0.9166 0.7148
0 0 -85 -0.707107 -0.707107 0 0.9263 0.1473
0 2 -84 -0.767846 0.592836 0.242814 0.0159 0.8062
100 2 -84 0.767845 0.417826 0.485629 0.8356 0.8062
0 2 -85 -0.744924 0.523781 -0.413209 0.0159 0.8144
100 0 -85 0.707107 -0.707107 0 0.9263 0.723
100 2 -85 0.744924 0.634352 -0.206605 0.9166 0.723
0 0 -85.5 -0.707107 -0.707107 0 0.9263 0.1432
0 2 -85 -0.744924 0.523781 -0.413209 0.0159 0.8175
100 2 -85 0.744924 0.634352 -0.206605 0.8356 0.8175
0 1.25 -85.5 -0.744924 0.634352 -0.206605 0.0159 0.8249
100 0 -85.5 0.707107 -0.707107 0 0.9263 0.7272
100 1.25 -85.5 0.744924 0.523781 -0.413209 0.9203 0.7272
0 0 -89.5 -0.707107 -0.707107 0 0.9263 0.1103
0 1.25 -85.5 -0.744924 0.634352 -0.206605 0.0159 0.8284
100 1.25 -85.5 0.744924 0.523781 -0.413209 0.8356 0.8284
0 1.25 -89.5 -0.744924 0.523781 0.413209 0.0159 0.8611
100 0 -89.5 0.707107 -0.707107 0 0.9263 0.7601
100 1.25 -89.5 0.744924 0.634352 0.206605 0.9203 0.7601
0 0 -90 -0.707107 -0.707107 0 0.9263 0.1062
0 1.25 -89.5 -0.744924 0.523781 0.413209 0.0159 0.8646
100 1.25 -89.5 0.744924 0.634352 0.206605 0.8356 0.8646
0 2 -90 -0.744924 0.634352 0.206605 0.0159 0.872
100 0 -90 0.707107 -0.707107 0 0.9263 0.7642
100 2 -90 0.744924 0.523781 0.413209 0.9166 0.7642
100 0 -90 0.707107 -0.707107 0 0.8974 0.8464
0 0 -90 -0.707107 -0.707107 0 0.8974 0.024
0 0 -100 -0.408248 -0.816497 -0.408248 0.9455 0.024
100 0 -100 0.666667 -0.333333 -0.666667 0.9455 0.8464
0 2 -100 -0.666667 0.333333 -0.666667 0.9167 0.024
0 0 -100 -0.408248 -0.816497 -0.408248 0.9263 0.024
0 2 -90 -0.744924 0.634352 0.206605 0.0159 0.8754
100 2 -90 0.744924 0.523781 0.413209 0.8356 0.8754
100 2 -100 0.408248 0.816497 -0.408248 0.8356 0.9573
0 2 -100 -0.666667 0.333333 -0.666667 0.0159 0.9573
100 0 -100 0.666667 -0.333333 -0.666667 0.9263 0.8464
100 2 -100 0.408248 0.816497 -0.408248 0.9166 0.8464
0 0 -77 -0.707107 -0.707107 0 0.9853 0.024
100 0 -77 0.707107 -0.707107 0 0.9853 0.8464
100 0 -50.5 0.707107 -0.707107 0 0.8577 0.8464
0 0 -50.5 -0.707107 -0.707107 0 0.8577 0.024
100 0 -23 0.707107 -0.707107 0 0.8553 0.8464
0 0 -23 -0.707107 -0.707107 0 0.8553 0.024
3 0 1 2 
3 0 2 3 
3 4 5 6 
3 4 6 7 
3 96 97 98 
3 96 98 99 
3 100 101 102 
3 100 102 103 
3 8 9 10 
3 8 10 11 
3 104 105 106 
3 104 106 107 
3 108 109 12 
3 108 12 13 
3 104 107 14 
3 104 14 110 
3 111 112 15 
3 111 15 113 
3 102 101 114 
3 102 114 115 
3 13 12 16 
3 13 16 17 
3 110 14 18 
3 110 18 116 
3 117 118 19 
3 117 19 119 
3 115 114 120 
3 115 120 121 
3 17 16 20 
3 17 20 21 
3 116 18 22 
3 116 22 122 
3 123 124 23 
3 123 23 125 
3 121 120 126 
3 121 126 127 
3 21 20 24 
3 21 24 25 
3 122 22 26 
3 122 26 128 
3 129 130 27 
3 129 27 131 
3 127 126 132 
3 127 132 133 
3 25 24 28 
3 25 28 29 
3 128 26 30 
3 128 30 134 
3 135 136 31 
3 135 31 137 
3 133 132 138 
3 133 138 139 
3 29 28 32 
3 29 32 33 
3 134 30 34 
3 134 34 140 
3 141 142 35 
3 141 35 143 
3 139 138 144 
3 139 144 145 
3 33 32 36 
3 33 36 37 
3 140 34 38 
3 140 38 146 
3 147 148 39 
3 147 39 149 
3 145 144 150 
3 145 150 151 
3 37 36 40 
3 37 40 41 
3 146 38 42 
3 146 42 152 
3 153 154 43 
3 153 43 155 
3 151 150 156 
3 151 156 157 
3 41 40 44 
3 41 44 45 
3 152 42 46 
3 152 46 158 
3 155 43 47 
3 155 47 159 
3 157 156 160 
3 157 160 161 
3 48 49 50 
3 48 50 51 
3 52 162 163 
3 52 163 53 
3 54 164 165 
3 54 165 55 
3 166 167 168 
3 166 168 169 
3 56 57 58 
3 56 58 59 
3 170 60 61 
3 170 61 171 
3 172 62 63 
3 172 63 173 
3 174 175 176 
3 174 176 177 
3 59 58 64 
3 59 64 65 
3 171 61 66 
3 171 66 178 
3 173 63 67 
3 173 67 179 
3 177 176 180 
3 177 180 181 
3 65 64 68 
3 65 68 69 
3 178 66 70 
3 178 70 182 
3 183 184 71 
3 183 71 185 
3 181 180 186 
3 181 186 187 
3 69 68 72 
3 69 72 73 
3 182 70 74 
3 182 74 188 
3 189 190 75 
3 189 75 191 
3 187 186 192 
3 187 192 193 
3 73 72 76 
3 73 76 77 
3 188 74 78 
3 188 78 194 
3 195 196 79 
3 195 79 197 
3 193 192 198 
3 193 198 199 
3 77 76 80 
3 77 80 81 
3 194 78 82 
3 194 82 200 
3 201 202 83 
3 201 83 203 
3 199 198 204 
3 199 204 205 
3 81 80 84 
3 81 84 85 
3 200 82 86 
3 200 86 206 
3 207 208 87 
3 207 87 209 
3 205 204 210 
3 205 210 211 
3 85 84 88 
3 85 88 89 
3 206 86 90 
3 206 90 212 
3 213 214 91 
3 213 91 215 
3 211 210 216 
3 211 216 217 
3 89 88 92 
3 89 92 93 
3 212 90 94 
3 212 94 218 
3 219 220 95 
3 219 95 221 
3 217 216 222 
3 217 222 223 
3 224 225 226 
3 224 226 227 
3 218 94 228 
3 218 228 229 
3 230 231 232 
3 230 232 233 
3 223 222 234 
3 223 234 235 
3 236 237 238 
3 236 238 239 
3 240 241 51 
3 240 51 50 
3 60 170 162 
3 60 162 52 
3 158 46 53 
3 158 53 163 
3 62 172 164 
3 62 164 54 
3 159 47 55 
3 159 55 165 
3 175 174 167 
3 175 167 166 
3 161 160 169 
3 161 169 168 
