ply
format ascii 1.0
comment VCGLIB generated
element vertex 48
property float x
property float y
property float z
property float nx
property float ny
property float nz
property uchar red
property uchar green
property uchar blue
property uchar alpha
property float texture_u
property float texture_v
element face 16
property list uchar int vertex_indices
end_header
0 0.9999995 3.9978 -0.1894797 0.9525687 -0.2381395 255 255 255 255 0.000000 0.000000
0 2.915112e-10 -0.002223 -0.1894797 0.9525687 -0.2381395 255 255 255 255 0.000000 0.000000
-0.3826799 0.9238794 3.9978 -0.1894797 0.9525687 -0.2381395 255 255 255 255 0.000000 0.000000
-0.3826799 0.9238794 3.9978 -0.5395885 0.807548 -0.2381393 255 255 255 255 0.000000 0.000000
0 2.915112e-10 -0.002223 -0.5395885 0.807548 -0.2381393 255 255 255 255 0.000000 0.000000
-0.7071098 0.7071095 3.9978 -0.5395885 0.807548 -0.2381393 255 255 255 255 0.000000 0.000000
-0.7071098 0.7071095 3.9978 -0.8075478 0.5395886 -0.2381393 255 255 255 255 0.000000 0.000000
0 2.915112e-10 -0.002223 -0.8075478 0.5395886 -0.2381393 255 255 255 255 0.000000 0.000000
-0.9238798 0.3826795 3.9978 -0.8075478 0.5395886 -0.2381393 255 255 255 255 0.000000 0.000000
-0.9238798 0.3826795 3.9978 -0.9525685 0.1894798 -0.2381396 255 255 255 255 0.000000 0.000000
0 2.915112e-10 -0.002223 -0.9525685 0.1894798 -0.2381396 255 255 255 255 0.000000 0.000000
-0.9999998 -5.242482e-07 3.9978 -0.9525685 0.1894798 -0.2381396 255 255 255 255 0.000000 0.000000
-0.9999998 -5.242482e-07 3.9978 -0.9525685 -0.1894797 -0.2381397 255 255 255 255 0.000000 0.000000
0 2.915112e-10 -0.002223 -0.9525685 -0.1894797 -0.2381397 255 255 255 255 0.000000 0.000000
-0.9238798 -0.3826805 3.9978 -0.9525685 -0.1894797 -0.2381397 255 255 255 255 0.000000 0.000000
-0.9238798 -0.3826805 3.9978 -0.8075478 -0.5395886 -0.2381395 255 255 255 255 0.000000 0.000000
0 2.915112e-10 -0.002223 -0.8075478 -0.5395886 -0.2381395 255 255 255 255 0.000000 0.000000
-0.7071098 -0.7071105 3.9978 -0.8075478 -0.5395886 -0.2381395 255 255 255 255 0.000000 0.000000
-0.7071098 -0.7071105 3.9978 -0.5395885 -0.807548 -0.2381395 255 255 255 255 0.000000 0.000000
0 2.915112e-10 -0.002223 -0.5395885 -0.807548 -0.2381395 255 255 255 255 0.000000 0.000000
-0.3826799 -0.9238805 3.9978 -0.5395885 -0.807548 -0.2381395 255 255 255 255 0.000000 0.000000
-0.3826799 -0.9238805 3.9978 -0.1894797 -0.9525687 -0.2381398 255 255 255 255 0.000000 0.000000
0 2.915112e-10 -0.002223 -0.1894797 -0.9525687 -0.2381398 255 255 255 255 0.000000 0.000000
0 -1 3.9978 -0.1894797 -0.9525687 -0.2381398 255 255 255 255 0.000000 0.000000
0 -1 3.9978 0.1894797 -0.9525687 -0.2381398 255 255 255 255 0.000000 0.000000
0 2.915112e-10 -0.002223 0.1894797 -0.9525687 -0.2381398 255 255 255 255 0.000000 0.000000
0.3826799 -0.9238805 3.9978 0.1894797 -0.9525687 -0.2381398 255 255 255 255 0.000000 0.000000
0.3826799 -0.9238805 3.9978 0.5395885 -0.807548 -0.2381395 255 255 255 255 0.000000 0.000000
0 2.915112e-10 -0.002223 0.5395885 -0.807548 -0.2381395 255 255 255 255 0.000000 0.000000
0.7071098 -0.7071105 3.9978 0.5395885 -0.807548 -0.2381395 255 255 255 255 0.000000 0.000000
0.7071098 -0.7071105 3.9978 0.8075478 -0.5395886 -0.2381395 255 255 255 255 0.000000 0.000000
0 2.915112e-10 -0.002223 0.8075478 -0.5395886 -0.2381395 255 255 255 255 0.000000 0.000000
0.9238798 -0.3826805 3.9978 0.8075478 -0.5395886 -0.2381395 255 255 255 255 0.000000 0.000000
0.9238798 -0.3826805 3.9978 0.9525685 -0.1894797 -0.2381397 255 255 255 255 0.000000 0.000000
0 2.915112e-10 -0.002223 0.9525685 -0.1894797 -0.2381397 255 255 255 255 0.000000 0.000000
0.9999998 -5.242482e-07 3.9978 0.9525685 -0.1894797 -0.2381397 255 255 255 255 0.000000 0.000000
0.9999998 -5.242482e-07 3.9978 0.9525685 0.1894798 -0.2381396 255 255 255 255 0.000000 0.000000
0 2.915112e-10 -0.002223 0.9525685 0.1894798 -0.2381396 255 255 255 255 0.000000 0.000000
0.9238798 0.3826795 3.9978 0.9525685 0.1894798 -0.2381396 255 255 255 255 0.000000 0.000000
0.9238798 0.3826795 3.9978 0.8075478 0.5395886 -0.2381393 255 255 255 255 0.000000 0.000000
0 2.915112e-10 -0.002223 0.8075478 0.5395886 -0.2381393 255 255 255 255 0.000000 0.000000
0.7071098 0.7071095 3.9978 0.8075478 0.5395886 -0.2381393 255 255 255 255 0.000000 0.000000
0.7071098 0.7071095 3.9978 0.5395885 0.807548 -0.2381393 255 255 255 255 0.000000 0.000000
0 2.915112e-10 -0.002223 0.5395885 0.807548 -0.2381393 255 255 255 255 0.000000 0.000000
0.3826799 0.9238794 3.9978 0.5395885 0.807548 -0.2381393 255 255 255 255 0.000000 0.000000
0.3826799 0.9238794 3.9978 0.1894797 0.9525687 -0.2381395 255 255 255 255 0.000000 0.000000
0 2.915112e-10 -0.002223 0.1894797 0.9525687 -0.2381395 255 255 255 255 0.000000 0.000000
0 0.9999995 3.9978 0.1894797 0.9525687 -0.2381395 255 255 255 255 0.000000 0.000000
3 0 1 2 
3 3 4 5 
3 6 7 8 
3 9 10 11 
3 12 13 14 
3 15 16 17 
3 18 19 20 
3 21 22 23 
3 24 25 26 
3 27 28 29 
3 30 31 32 
3 33 34 35 
3 36 37 38 
3 39 40 41 
3 42 43 44 
3 45 46 47 
